<svg id="svg" version="1.1" xmlns="http://www.w3.org/2000/svg" xmlns:xlink="http://www.w3.org/1999/xlink" width="400" height="308.12398042414355" viewBox="0, 0, 400,308.12398042414355"><g id="svgg"><path id="path0" d="M169.152 2.831 C 161.446 3.347,154.241 6.239,149.593 10.683 C 146.876 13.280,146.067 15.866,147.455 17.516 L 147.898 18.041 149.637 17.925 L 151.376 17.808 151.270 18.228 C 149.737 24.336,151.369 29.481,157.339 37.370 C 161.696 43.128,162.176 45.681,159.677 49.816 C 158.578 51.635,157.193 55.241,157.065 56.615 C 156.500 62.698,162.647 65.604,168.653 62.094 C 170.911 60.774,173.009 60.633,175.094 61.659 C 176.487 62.345,176.430 62.431,176.732 59.167 C 177.116 55.016,177.460 54.093,178.785 53.655 C 179.939 53.274,181.289 53.939,181.663 55.071 C 181.931 55.884,181.414 61.524,180.996 62.333 C 180.448 63.397,179.532 64.312,178.896 64.432 C 178.148 64.572,178.041 64.866,178.383 65.831 C 179.065 67.749,179.176 68.875,179.063 72.729 C 178.918 77.656,179.249 79.160,180.772 80.497 C 182.098 81.661,184.483 82.217,184.358 81.333 C 184.131 79.727,184.264 77.225,184.609 76.579 C 186.542 72.971,192.067 72.504,195.194 75.686 C 197.872 78.410,198.269 82.829,196.336 88.417 C 195.987 89.425,195.440 91.000,195.120 91.917 C 193.350 96.980,192.618 102.943,193.384 106.042 C 194.546 110.744,198.533 112.846,200.992 110.053 C 202.560 108.272,202.754 105.862,201.876 99.083 C 200.487 88.355,203.006 84.234,211.168 83.884 C 214.656 83.734,216.885 84.011,221.562 85.174 C 225.376 86.123,225.730 86.013,230.656 82.352 C 234.310 79.636,235.752 78.654,237.667 77.578 C 238.446 77.140,239.946 76.276,241.000 75.659 C 242.054 75.042,243.385 74.369,243.956 74.164 C 245.238 73.703,245.237 73.706,245.604 69.667 C 248.275 40.304,216.238 6.897,182.167 3.516 C 174.362 2.741,172.199 2.627,169.152 2.831 M171.561 11.397 C 172.739 11.889,176.083 16.710,176.083 17.917 C 176.083 19.998,173.624 21.902,172.214 20.914 C 171.209 20.211,168.333 15.652,168.337 14.770 C 168.350 12.093,169.742 10.637,171.561 11.397 M188.703 15.216 C 189.329 15.493,193.449 19.417,193.773 20.045 C 194.542 21.532,192.812 24.333,191.124 24.333 C 190.355 24.333,189.679 23.811,187.268 21.356 L 185.285 19.337 185.393 18.179 C 185.630 15.628,186.955 14.441,188.703 15.216 M208.192 22.493 C 211.320 23.397,211.867 23.719,212.167 24.835 C 212.558 26.288,210.917 28.667,209.523 28.667 C 208.230 28.667,203.464 27.151,202.851 26.544 L 202.285 25.985 202.389 24.644 C 202.630 21.509,203.575 21.159,208.192 22.493 M190.224 25.190 C 190.614 25.385,191.607 26.275,192.497 27.227 C 198.284 33.413,199.607 34.002,204.574 32.598 C 208.051 31.616,208.787 32.178,209.843 36.626 C 210.459 39.215,210.840 39.653,211.080 38.044 C 211.414 35.805,213.391 34.970,214.977 36.396 C 215.739 37.080,218.000 42.097,218.000 43.102 L 218.000 43.987 218.708 44.170 C 219.928 44.485,220.064 44.533,220.848 44.928 C 222.072 45.542,222.994 46.845,222.999 47.964 C 223.000 48.123,223.206 48.152,223.792 48.076 C 224.658 47.965,229.905 49.348,230.771 49.915 C 232.336 50.941,231.693 53.798,229.647 54.903 L 229.055 55.223 225.916 54.324 C 223.143 53.530,222.713 53.360,222.232 52.865 C 221.289 51.893,220.834 52.313,220.174 54.765 C 219.040 58.978,213.219 62.167,206.660 62.167 C 191.070 62.167,176.194 46.879,178.686 33.417 C 179.279 30.217,181.983 27.333,184.391 27.333 C 185.020 27.333,185.243 27.177,185.975 26.221 C 187.091 24.764,188.629 24.390,190.224 25.190 M168.744 25.731 C 169.526 26.243,170.886 31.881,170.593 33.395 C 170.147 35.699,167.567 36.985,166.284 35.543 C 165.833 35.036,164.946 29.771,165.061 28.280 C 165.247 25.874,167.054 24.623,168.744 25.731 M230.160 35.600 C 231.531 36.148,231.911 37.747,231.007 39.156 C 229.985 40.748,229.850 40.816,226.809 41.264 C 221.988 41.974,221.345 41.703,221.536 39.036 C 221.692 36.855,222.272 36.342,225.053 35.930 C 229.624 35.253,229.338 35.271,230.160 35.600 M169.783 45.826 C 172.158 47.275,171.054 49.617,166.726 52.309 C 162.866 54.710,161.525 54.462,161.713 51.381 C 161.831 49.435,161.997 49.221,164.750 47.465 C 168.110 45.322,168.661 45.142,169.783 45.826 M219.300 60.067 C 220.331 60.604,222.552 65.435,222.574 67.188 C 222.592 68.695,221.041 70.430,219.703 70.400 C 218.459 70.373,217.885 69.411,216.058 64.291 C 215.174 61.815,217.310 59.032,219.300 60.067 M193.968 62.171 C 195.149 62.891,195.276 64.404,194.283 65.901 C 193.591 66.942,189.698 70.660,188.981 70.964 C 187.672 71.518,186.410 70.563,186.427 69.030 C 186.447 67.164,186.574 66.886,188.139 65.277 C 191.531 61.790,192.498 61.275,193.968 62.171 M238.988 69.077 C 241.638 70.447,240.812 72.325,235.452 77.124 C 233.376 78.982,231.494 78.153,231.718 75.479 C 231.848 73.926,232.036 73.642,234.425 71.396 C 237.187 68.799,237.824 68.475,238.988 69.077 M210.734 75.175 C 212.666 76.871,211.678 78.806,207.558 81.397 C 204.619 83.244,204.317 83.341,203.194 82.787 C 202.383 82.387,202.112 81.025,202.521 79.401 C 202.766 78.429,203.109 78.126,206.088 76.246 C 209.028 74.391,209.672 74.242,210.734 75.175 " stroke="none" fill="#d8688e" fill-rule="evenodd"></path><path id="path1" d="M164.833 0.168 C 164.512 0.242,163.987 0.340,163.667 0.384 C 160.268 0.860,154.697 2.936,152.127 4.683 C 151.601 5.041,151.128 5.333,151.075 5.333 C 150.419 5.333,145.772 9.683,144.667 11.332 C 144.529 11.537,144.267 11.900,144.083 12.139 C 142.462 14.249,141.334 17.408,141.237 20.107 C 141.191 21.392,141.099 21.932,140.855 22.357 C 140.507 22.963,139.585 25.659,139.040 27.667 C 137.633 32.847,137.662 41.518,139.104 47.250 C 139.500 48.827,140.016 50.727,140.121 51.000 C 140.174 51.137,140.235 51.325,140.257 51.417 C 140.394 51.988,141.350 54.718,141.524 55.035 C 141.640 55.245,141.748 55.492,141.766 55.583 C 141.992 56.759,144.808 62.353,146.440 64.870 C 146.840 65.485,147.167 66.032,147.167 66.084 C 147.167 66.173,149.499 69.642,149.837 70.054 C 150.246 70.553,151.119 71.656,151.453 72.097 C 152.600 73.609,152.424 73.402,155.131 76.417 C 159.049 80.779,164.567 85.501,169.803 88.972 C 170.932 89.721,171.892 90.333,171.936 90.333 C 171.980 90.333,172.456 90.625,172.993 90.982 C 175.578 92.699,180.858 95.346,184.667 96.834 C 185.904 97.318,187.153 97.815,187.442 97.940 C 187.731 98.065,188.023 98.167,188.091 98.167 C 188.160 98.167,188.642 98.322,189.163 98.512 L 190.110 98.857 189.981 99.637 C 189.292 103.810,190.392 109.101,192.453 111.530 C 194.785 114.277,199.692 115.717,202.716 114.541 C 205.859 113.319,207.319 109.813,207.330 103.458 C 207.333 101.885,207.345 101.833,207.708 101.833 C 207.915 101.833,209.208 101.800,210.583 101.759 C 213.022 101.686,213.423 101.653,215.667 101.333 C 216.262 101.248,217.125 101.135,217.583 101.081 C 218.042 101.028,218.717 100.905,219.083 100.808 C 219.450 100.710,219.938 100.601,220.167 100.564 C 220.946 100.441,224.262 99.474,225.250 99.081 C 225.525 98.972,226.200 98.709,226.750 98.496 C 227.300 98.283,227.805 98.028,227.872 97.929 C 227.940 97.831,227.996 97.813,227.997 97.889 C 228.003 98.184,232.639 95.525,234.250 94.304 C 235.435 93.406,237.612 91.496,238.333 90.722 C 239.846 89.099,241.662 86.861,241.665 86.618 C 241.666 86.545,241.967 86.080,242.333 85.583 C 242.700 85.087,243.000 84.644,243.000 84.599 C 243.000 84.554,243.261 84.084,243.580 83.555 C 243.898 83.026,244.389 82.022,244.671 81.323 C 245.093 80.275,245.279 80.008,245.738 79.789 C 248.644 78.404,249.831 67.540,248.136 57.833 C 247.952 56.779,247.763 55.854,247.716 55.778 C 247.668 55.701,247.531 55.213,247.411 54.694 C 247.134 53.502,246.761 52.155,246.411 51.083 C 245.330 47.778,242.950 42.468,241.332 39.750 C 241.059 39.292,240.761 38.767,240.668 38.583 C 240.576 38.400,240.407 38.101,240.292 37.919 C 240.177 37.736,239.755 37.061,239.354 36.419 C 238.953 35.776,238.560 35.225,238.479 35.194 C 238.399 35.164,238.333 35.036,238.333 34.911 C 238.333 34.786,238.231 34.623,238.106 34.550 C 237.981 34.477,237.758 34.180,237.610 33.891 C 237.462 33.602,237.246 33.264,237.129 33.141 C 237.012 33.018,236.712 32.617,236.461 32.250 C 236.211 31.883,235.836 31.387,235.628 31.147 C 235.420 30.907,235.063 30.461,234.833 30.155 C 234.416 29.598,232.935 27.832,231.839 26.583 C 230.228 24.750,224.672 19.411,223.623 18.688 C 223.418 18.547,223.175 18.343,223.083 18.233 C 222.904 18.019,219.965 15.745,219.336 15.333 C 219.126 15.196,218.758 14.927,218.518 14.735 C 217.763 14.131,215.378 12.500,215.250 12.500 C 215.183 12.500,214.780 12.249,214.356 11.943 C 213.931 11.637,213.471 11.334,213.333 11.270 C 213.196 11.206,212.932 11.063,212.747 10.952 C 209.758 9.161,209.628 9.090,206.417 7.515 C 202.229 5.460,200.518 4.778,195.083 2.997 C 191.644 1.870,185.578 0.640,182.315 0.407 C 181.546 0.352,180.319 0.238,179.588 0.154 C 177.975 -0.033,165.652 -0.021,164.833 0.168 M178.167 2.908 C 185.933 3.651,190.311 4.491,195.584 6.253 C 221.080 14.771,241.702 36.837,245.504 59.667 C 246.615 66.338,245.577 77.338,243.876 76.929 C 240.227 76.050,238.724 76.690,231.000 82.410 C 222.178 88.944,221.732 89.100,215.917 87.667 C 205.403 85.076,204.109 86.485,204.203 100.417 C 204.260 108.783,203.634 111.284,201.362 111.760 C 201.117 111.811,200.773 111.883,200.598 111.918 C 200.007 112.038,197.485 111.498,196.641 111.070 C 192.117 108.778,191.582 100.955,195.252 90.750 C 197.719 83.887,197.937 80.243,196.060 77.211 C 193.854 73.649,188.967 72.663,186.085 75.200 C 184.550 76.551,184.230 77.807,184.573 81.121 C 184.864 83.925,184.006 84.923,181.422 84.784 C 178.641 84.636,177.717 84.184,176.917 82.583 L 176.417 81.583 176.406 76.750 C 176.396 72.243,176.370 71.833,176.022 70.678 C 174.089 64.260,169.168 61.998,163.833 65.075 C 158.142 68.357,153.235 65.353,154.729 59.500 C 154.997 58.451,155.621 57.097,157.324 53.873 C 159.554 49.651,158.909 46.687,154.490 40.852 C 148.770 33.299,147.343 29.060,148.562 23.234 C 149.042 20.941,148.685 20.571,146.125 20.712 C 143.760 20.843,143.569 19.641,145.379 16.023 C 150.325 6.137,162.209 1.383,178.167 2.908 M169.667 11.866 C 168.171 12.879,168.325 13.728,170.593 16.975 C 172.728 20.031,173.418 20.482,174.839 19.747 C 176.392 18.944,176.220 17.766,174.104 14.731 C 171.737 11.335,171.078 10.910,169.667 11.866 M171.487 12.792 C 172.221 13.476,174.999 17.532,174.999 17.921 C 175.001 18.814,173.840 19.357,173.138 18.792 C 172.511 18.287,169.667 13.945,169.667 13.493 C 169.667 12.488,170.724 12.081,171.487 12.792 M186.917 15.491 C 186.270 15.755,185.946 16.307,185.865 17.282 L 185.787 18.225 188.150 20.524 C 191.322 23.611,192.461 23.922,193.462 21.975 C 194.129 20.679,193.908 20.252,191.289 17.790 C 188.572 15.235,188.121 14.998,186.917 15.491 M190.338 18.357 C 192.838 20.691,193.127 21.265,192.123 21.899 C 191.650 22.197,191.104 21.825,188.929 19.728 C 186.730 17.606,186.546 17.287,187.167 16.667 C 187.754 16.079,188.090 16.258,190.338 18.357 M204.222 21.943 C 202.615 22.282,202.234 24.771,203.656 25.636 C 204.533 26.169,209.712 27.560,210.364 27.437 C 212.288 27.077,212.527 24.223,210.692 23.526 C 208.638 22.746,204.832 21.815,204.222 21.943 M207.802 23.590 C 210.530 24.379,211.042 24.666,211.042 25.406 C 211.042 26.650,210.362 26.725,207.248 25.828 C 203.841 24.847,203.667 24.750,203.667 23.844 C 203.667 22.674,204.466 22.625,207.802 23.590 M145.925 26.292 C 145.909 32.315,146.980 34.960,152.252 41.924 C 156.790 47.917,157.096 49.564,154.500 54.024 C 151.630 58.956,151.213 62.970,153.262 65.945 C 155.574 69.301,159.907 69.839,164.652 67.359 L 166.750 66.261 168.167 66.258 C 172.278 66.248,174.313 69.866,174.002 76.629 C 173.691 83.405,174.608 85.545,178.367 86.820 C 183.991 88.728,187.902 85.742,186.902 80.301 C 186.375 77.433,187.684 75.959,190.530 76.215 C 193.280 76.462,194.833 78.514,194.833 81.900 C 194.833 84.648,194.623 85.525,192.751 90.583 C 192.411 91.500,191.933 93.037,191.687 94.000 C 191.135 96.164,191.287 96.125,188.061 94.948 C 155.706 83.143,134.234 50.194,142.846 25.561 C 143.641 23.285,143.601 23.320,145.508 23.195 L 145.933 23.167 145.925 26.292 M166.183 26.096 C 165.305 26.834,165.264 27.397,165.845 30.762 C 166.506 34.593,166.743 35.000,168.319 35.000 C 169.537 35.000,170.333 34.193,170.333 32.960 C 170.333 32.169,169.528 27.345,169.300 26.772 C 168.864 25.677,167.128 25.300,166.183 26.096 M168.061 26.918 C 168.453 27.310,169.443 32.539,169.261 33.263 C 169.068 34.034,167.913 34.106,167.520 33.371 C 167.363 33.077,166.500 28.129,166.500 27.522 C 166.500 26.849,167.575 26.432,168.061 26.918 M184.083 27.659 C 179.271 28.260,177.229 35.597,179.837 42.917 C 185.113 57.724,204.854 66.679,216.048 59.342 C 218.992 57.413,220.247 55.319,220.249 52.333 C 220.251 49.065,218.234 47.547,212.500 46.501 C 208.766 45.820,208.309 45.348,207.337 41.167 C 205.975 35.305,204.612 34.201,200.250 35.426 C 195.747 36.691,194.793 36.261,189.618 30.634 C 187.283 28.094,186.024 27.417,184.083 27.659 M186.276 30.709 C 186.720 31.035,187.624 31.933,188.285 32.704 C 193.155 38.382,195.112 39.161,200.874 37.717 C 203.686 37.012,203.815 37.133,204.922 41.482 C 206.276 46.806,207.402 48.097,211.250 48.739 C 217.154 49.724,218.416 50.688,217.733 53.692 C 216.842 57.611,210.128 60.426,204.036 59.436 C 202.345 59.161,202.395 59.212,202.681 58.043 C 204.833 49.266,192.824 39.836,184.583 43.831 C 183.011 44.593,183.088 44.633,182.287 42.667 C 179.384 35.545,182.037 27.592,186.276 30.709 M225.765 36.095 C 222.411 36.602,221.625 37.152,221.893 38.805 C 222.158 40.439,223.162 40.687,227.124 40.098 C 230.800 39.552,231.705 38.898,231.186 37.164 C 230.712 35.585,230.030 35.450,225.765 36.095 M212.191 36.422 C 210.984 37.437,211.058 38.055,212.818 41.688 C 214.277 44.700,214.554 45.000,215.878 45.000 C 216.869 45.000,217.833 43.909,217.833 42.789 C 217.833 42.163,215.107 36.775,214.582 36.362 C 213.922 35.843,212.847 35.870,212.191 36.422 M230.000 36.833 C 231.162 37.996,230.275 38.687,227.043 39.141 C 223.268 39.670,222.833 39.595,222.833 38.417 C 222.833 37.529,223.195 37.365,226.100 36.930 C 229.434 36.432,229.594 36.428,230.000 36.833 M213.862 37.182 C 214.274 37.403,216.660 42.228,216.664 42.849 C 216.668 43.491,216.106 43.934,215.537 43.739 C 215.031 43.565,212.503 38.798,212.501 38.013 C 212.499 37.220,213.169 36.811,213.862 37.182 M167.907 45.900 C 166.382 46.570,162.526 49.193,162.268 49.735 C 161.552 51.245,162.455 52.667,164.131 52.667 C 165.183 52.667,169.914 49.640,170.434 48.634 C 171.263 47.031,169.550 45.178,167.907 45.900 M169.412 46.994 C 170.220 47.887,169.847 48.357,166.824 50.250 C 164.418 51.757,163.900 51.929,163.328 51.412 C 162.422 50.592,162.845 50.042,165.820 48.175 C 168.337 46.595,168.887 46.415,169.412 46.994 M223.167 48.546 C 222.117 49.071,221.874 50.687,222.708 51.593 C 223.283 52.217,228.155 53.832,229.467 53.833 C 231.058 53.834,232.013 52.094,231.175 50.719 C 230.474 49.569,224.412 47.924,223.167 48.546 M226.888 50.007 C 230.469 51.028,230.883 51.307,230.251 52.272 C 229.881 52.836,229.330 52.786,226.333 51.914 C 223.341 51.044,222.770 50.566,223.609 49.638 C 223.990 49.217,224.203 49.241,226.888 50.007 M178.460 54.094 C 177.673 54.521,177.477 55.177,177.182 58.356 C 176.893 61.485,176.931 61.978,177.516 62.600 C 178.758 63.923,180.801 63.179,181.056 61.311 C 181.922 54.973,181.092 52.666,178.460 54.094 M180.167 55.167 C 180.564 55.564,180.556 55.213,180.246 58.599 C 179.938 61.959,179.729 62.420,178.666 62.083 C 178.043 61.885,177.994 61.499,178.253 58.809 C 178.388 57.401,178.499 56.081,178.500 55.875 C 178.500 55.410,179.054 54.833,179.500 54.833 C 179.683 54.833,179.983 54.983,180.167 55.167 M217.230 60.485 C 216.698 60.809,216.333 61.551,216.333 62.308 C 216.333 63.126,218.507 68.310,219.038 68.756 C 220.443 69.939,222.547 68.720,222.290 66.872 C 222.126 65.694,220.202 61.121,219.661 60.625 C 219.049 60.064,218.018 60.004,217.230 60.485 M219.117 61.375 C 219.457 61.747,221.270 66.143,221.446 67.020 C 221.632 67.952,220.422 68.656,219.690 68.042 C 219.127 67.570,217.133 62.278,217.326 61.770 C 217.632 60.965,218.557 60.761,219.117 61.375 M191.963 62.216 C 191.384 62.472,187.554 66.070,187.144 66.743 C 185.832 68.894,188.442 70.894,190.375 69.219 C 191.821 67.964,194.198 65.569,194.429 65.133 C 195.351 63.390,193.707 61.444,191.963 62.216 M193.656 63.530 C 194.063 64.259,193.745 64.735,191.368 66.960 C 188.975 69.198,188.681 69.329,187.958 68.474 C 187.398 67.812,187.579 67.508,189.903 65.200 C 192.401 62.720,193.043 62.434,193.656 63.530 M236.733 69.651 C 235.043 70.909,232.198 73.907,232.090 74.542 C 231.848 75.978,233.225 77.228,234.623 76.840 C 235.458 76.608,239.257 73.121,239.817 72.073 C 240.876 70.089,238.574 68.281,236.733 69.651 M238.802 70.340 C 239.496 70.987,239.302 71.518,237.875 72.882 C 234.403 76.198,234.251 76.293,233.439 75.655 C 232.661 75.042,232.829 74.543,234.292 73.130 C 237.677 69.859,238.043 69.633,238.802 70.340 M208.583 75.065 C 207.639 75.478,203.510 78.185,203.176 78.609 C 201.844 80.303,203.794 82.632,205.719 81.647 C 207.204 80.887,210.795 78.444,211.042 78.026 C 212.043 76.330,210.351 74.292,208.583 75.065 M210.152 76.522 C 210.537 77.213,210.142 77.614,207.395 79.313 C 204.723 80.967,204.657 80.991,204.167 80.500 C 203.348 79.681,203.580 79.396,206.667 77.433 C 209.155 75.851,209.697 75.709,210.152 76.522 M242.167 79.359 C 242.167 79.981,240.525 83.005,239.110 84.991 C 232.929 93.665,223.050 98.382,210.233 98.778 C 206.245 98.902,206.632 99.223,206.658 95.809 C 206.713 88.584,207.740 87.966,216.001 90.187 C 221.190 91.582,223.403 90.958,229.679 86.333 C 231.233 85.188,233.492 83.525,234.698 82.638 C 238.825 79.605,242.167 78.138,242.167 79.359 M245.136 104.754 C 244.065 104.871,242.940 105.047,242.636 105.145 C 242.332 105.242,241.821 105.367,241.500 105.420 C 240.915 105.518,237.254 106.706,236.708 106.975 C 236.548 107.053,236.154 107.235,235.833 107.378 C 235.512 107.521,234.474 108.024,233.526 108.496 L 231.802 109.355 231.918 107.953 C 232.105 105.715,231.241 104.792,229.458 105.326 C 228.583 105.588,228.423 106.047,228.090 109.246 C 227.938 110.711,227.799 111.916,227.782 111.925 C 227.679 111.977,225.526 113.615,225.250 113.851 C 222.836 115.916,221.400 117.304,218.975 119.917 C 216.283 122.817,212.593 128.551,210.932 132.417 C 210.577 133.242,210.147 134.235,209.977 134.623 C 209.806 135.012,209.667 135.448,209.667 135.592 C 209.667 135.737,209.585 136.009,209.484 136.196 C 207.603 139.711,206.978 150.606,208.334 156.266 C 209.290 160.260,209.579 160.727,211.102 160.741 C 212.781 160.757,213.241 159.577,212.496 157.167 C 210.499 150.710,210.864 143.259,213.537 135.935 C 213.901 134.938,214.381 133.794,214.605 133.394 C 214.828 132.994,214.959 132.667,214.896 132.667 C 214.833 132.667,214.894 132.535,215.032 132.375 C 215.347 132.009,216.753 129.440,216.687 129.352 C 216.660 129.316,216.705 129.241,216.786 129.185 C 217.005 129.035,218.000 127.509,218.000 127.325 C 218.000 127.238,218.061 127.167,218.136 127.167 C 218.211 127.167,218.431 126.885,218.625 126.542 C 218.820 126.198,219.190 125.660,219.448 125.347 C 219.706 125.034,220.353 124.246,220.887 123.597 C 221.998 122.246,225.366 118.796,226.542 117.804 C 227.468 117.022,227.421 116.819,227.092 120.167 C 226.962 121.496,226.771 123.483,226.668 124.583 C 226.566 125.683,226.374 127.483,226.242 128.583 C 226.111 129.683,225.965 131.071,225.918 131.667 C 225.834 132.737,225.630 134.728,225.003 140.583 C 224.827 142.233,224.597 144.408,224.493 145.417 C 224.389 146.425,224.278 147.475,224.246 147.750 C 224.214 148.025,224.149 148.662,224.102 149.167 C 224.055 149.671,223.902 151.171,223.762 152.500 C 223.277 157.109,222.851 161.264,222.582 164.000 C 222.433 165.512,222.170 168.100,221.998 169.750 C 221.825 171.400,221.596 173.688,221.488 174.833 C 221.381 175.979,221.274 177.029,221.249 177.167 C 221.225 177.304,221.155 178.054,221.094 178.833 C 221.033 179.612,220.879 181.300,220.752 182.583 C 220.625 183.867,220.363 186.679,220.170 188.833 C 219.977 190.987,219.709 193.875,219.574 195.250 C 219.440 196.625,219.323 198.237,219.315 198.833 C 219.286 200.959,219.047 201.123,218.584 199.336 C 218.122 197.551,217.509 197.023,216.166 197.250 C 215.098 197.431,214.326 198.886,214.814 199.798 C 214.915 199.986,215.040 200.409,215.093 200.738 C 215.145 201.067,215.295 201.541,215.426 201.793 C 215.557 202.044,215.666 202.325,215.667 202.417 C 215.672 202.691,217.078 204.620,217.599 205.066 C 218.927 206.204,218.803 205.664,218.631 209.583 C 218.296 217.214,218.589 220.938,219.593 221.820 C 220.708 222.798,223.333 222.056,223.333 220.762 C 223.333 220.715,223.520 220.267,223.749 219.768 C 223.978 219.268,224.192 218.722,224.224 218.554 C 224.257 218.387,224.329 218.137,224.386 218.000 C 225.598 215.042,224.471 212.856,222.326 214.004 C 222.086 214.132,222.025 214.122,222.077 213.962 C 222.156 213.717,222.320 209.978,222.328 208.233 L 222.333 207.050 223.792 206.943 C 226.430 206.750,229.845 205.520,231.781 204.065 C 232.072 203.846,232.385 203.667,232.475 203.667 C 232.565 203.667,232.664 203.606,232.694 203.532 C 232.725 203.458,233.164 203.125,233.669 202.792 C 235.037 201.891,237.526 199.768,239.508 197.814 C 241.808 195.545,243.110 194.078,245.630 190.917 C 246.588 189.715,248.867 186.537,249.754 185.167 C 250.376 184.204,251.211 182.913,251.609 182.297 C 252.008 181.681,252.333 181.110,252.333 181.028 C 252.333 180.946,252.472 180.699,252.642 180.481 C 253.175 179.793,256.642 173.112,257.692 170.746 C 258.700 168.478,259.231 167.137,259.193 166.958 C 259.179 166.890,259.242 166.833,259.333 166.833 C 259.425 166.833,259.500 166.741,259.500 166.629 C 259.500 166.516,259.750 165.785,260.056 165.004 C 260.754 163.221,260.861 162.921,261.774 160.167 C 263.322 155.498,264.077 152.705,265.152 147.667 C 265.809 144.587,266.521 140.014,266.760 137.333 C 266.814 136.737,266.934 135.612,267.028 134.833 C 267.316 132.450,267.350 124.948,267.079 123.500 C 266.951 122.813,266.806 121.987,266.758 121.667 C 264.943 109.606,257.075 103.451,245.136 104.754 M349.625 106.013 C 349.224 106.247,348.894 106.940,348.759 107.833 C 348.422 110.064,347.971 112.928,347.747 114.250 C 347.608 115.075,347.466 116.050,347.431 116.417 C 347.396 116.783,347.255 117.758,347.117 118.583 C 346.979 119.408,346.774 120.770,346.661 121.609 C 346.548 122.448,346.409 123.210,346.352 123.303 C 346.245 123.476,344.619 123.719,339.500 124.328 C 333.332 125.062,332.214 125.198,331.083 125.349 C 330.442 125.435,329.279 125.583,328.500 125.679 C 327.721 125.774,326.296 125.957,325.333 126.085 C 324.371 126.213,323.058 126.369,322.417 126.431 C 321.775 126.494,321.137 126.566,321.000 126.593 C 320.862 126.619,320.548 126.647,320.302 126.654 C 318.861 126.695,318.181 128.852,319.294 129.847 C 319.896 130.385,320.361 130.440,322.083 130.179 C 322.633 130.096,323.608 129.983,324.250 129.929 C 324.892 129.875,325.979 129.759,326.667 129.671 C 330.755 129.147,333.261 128.833,334.583 128.677 C 336.421 128.462,338.290 128.232,340.917 127.898 C 342.017 127.758,343.329 127.610,343.833 127.568 C 344.337 127.525,345.001 127.451,345.307 127.402 C 345.845 127.316,345.861 127.329,345.764 127.781 C 345.709 128.039,345.596 128.775,345.515 129.417 C 345.250 131.500,344.986 133.533,344.652 136.083 C 344.321 138.604,344.118 140.206,343.511 145.083 C 343.128 148.162,342.831 150.601,342.712 151.649 C 342.549 153.086,338.077 161.124,335.887 163.917 C 335.671 164.192,335.436 164.492,335.365 164.583 C 333.108 167.468,331.061 169.475,330.732 169.123 C 330.079 168.427,329.863 165.328,330.097 160.049 C 330.266 156.250,329.844 155.333,327.926 155.333 C 326.852 155.333,326.275 155.920,324.667 158.650 C 324.438 159.039,323.706 160.222,323.042 161.278 C 322.377 162.335,321.833 163.221,321.833 163.246 C 321.833 163.371,320.099 165.167,319.978 165.167 C 318.793 165.167,318.874 159.586,320.096 157.092 C 321.097 155.050,320.438 153.333,318.653 153.333 C 317.409 153.333,316.988 153.865,316.076 156.583 C 315.861 157.225,315.458 158.162,315.182 158.667 C 314.905 159.171,314.470 159.996,314.216 160.500 C 312.441 164.010,310.256 166.501,309.373 166.018 C 308.345 165.456,307.429 163.976,305.906 160.417 C 305.474 159.408,304.982 158.384,304.811 158.141 C 304.640 157.898,304.500 157.639,304.500 157.567 C 304.500 157.419,303.698 156.204,303.375 155.863 C 303.260 155.742,303.167 155.583,303.167 155.510 C 303.167 155.437,302.848 155.162,302.458 154.899 C 300.000 153.236,297.596 154.083,295.459 157.364 C 294.446 158.920,294.403 158.911,294.733 157.225 C 296.039 150.551,296.038 150.568,295.369 149.818 C 294.426 148.763,292.212 149.320,292.154 150.628 C 292.139 150.964,292.113 151.114,291.743 153.000 C 290.887 157.365,290.840 157.528,290.169 158.474 C 289.471 159.458,287.340 161.706,286.588 162.251 C 286.336 162.434,286.034 162.674,285.918 162.784 C 285.473 163.205,283.537 164.153,282.441 164.486 C 280.610 165.043,280.724 165.155,280.625 162.708 C 280.538 160.573,280.074 158.021,279.559 156.842 C 279.020 155.611,278.897 155.421,278.150 154.652 C 276.105 152.546,272.744 153.378,271.587 156.275 C 271.357 156.849,271.214 156.985,270.746 157.073 C 270.215 157.173,268.167 159.143,268.167 159.555 C 268.167 159.634,268.029 159.898,267.862 160.141 C 266.791 161.694,266.155 165.711,266.667 167.689 C 266.758 168.043,266.916 168.652,267.017 169.042 C 268.790 175.874,276.964 176.028,279.746 169.281 L 280.050 168.545 281.415 168.440 C 282.924 168.324,284.876 167.767,286.012 167.129 C 286.418 166.901,287.050 166.545,287.417 166.339 C 287.783 166.133,288.406 165.702,288.801 165.380 C 289.711 164.639,289.736 164.677,289.434 166.356 C 289.297 167.123,289.145 168.087,289.097 168.500 C 289.049 168.912,288.893 170.228,288.749 171.423 C 288.605 172.619,288.509 174.378,288.535 175.334 L 288.583 177.071 289.150 177.452 C 290.164 178.135,292.000 177.657,292.000 176.711 C 292.000 176.568,292.144 176.031,292.321 175.517 C 292.497 175.004,293.095 173.196,293.649 171.500 C 294.203 169.804,294.815 168.004,295.007 167.500 C 295.330 166.655,295.575 165.964,295.775 165.333 C 295.819 165.196,295.844 165.054,295.830 165.019 C 295.816 164.983,295.870 164.908,295.949 164.852 C 296.028 164.796,296.313 164.188,296.581 163.500 C 297.705 160.621,299.349 158.000,300.031 158.000 C 300.499 158.000,301.492 159.667,302.763 162.583 C 302.923 162.950,303.061 163.287,303.070 163.333 C 303.093 163.443,304.291 165.814,304.558 166.277 C 307.244 170.935,311.635 170.872,315.229 166.126 C 315.757 165.430,315.923 165.438,316.084 166.171 C 316.250 166.927,317.350 168.203,318.199 168.625 C 320.476 169.757,323.110 168.301,325.509 164.587 L 326.250 163.440 326.342 165.762 C 326.603 172.306,329.488 174.721,333.667 171.893 C 335.330 170.768,338.849 166.731,340.186 164.417 C 341.448 162.231,341.522 162.301,341.158 165.333 C 340.689 169.234,340.308 172.642,340.162 174.250 C 340.086 175.075,339.911 176.762,339.772 178.000 C 338.323 190.881,336.946 209.502,337.263 211.917 C 337.765 215.736,341.118 215.354,342.079 211.369 C 342.484 209.690,342.239 208.819,341.256 208.442 C 340.985 208.338,340.965 208.174,341.059 206.788 C 341.116 205.942,341.204 204.313,341.254 203.167 C 341.344 201.143,341.615 197.429,341.748 196.417 C 341.784 196.142,341.860 195.242,341.917 194.417 C 342.051 192.461,342.554 187.033,343.351 178.917 C 343.450 177.908,343.562 176.896,343.599 176.667 C 343.636 176.438,343.708 175.838,343.758 175.333 C 344.041 172.480,344.388 169.256,344.673 166.833 C 344.851 165.321,345.075 163.371,345.171 162.500 C 345.268 161.629,345.451 160.017,345.579 158.917 C 345.707 157.817,345.894 156.204,345.994 155.333 C 346.093 154.462,346.317 152.625,346.491 151.250 C 346.665 149.875,346.929 147.737,347.078 146.500 C 347.227 145.262,347.492 143.162,347.668 141.833 C 347.844 140.504,348.144 138.179,348.336 136.667 C 348.527 135.154,348.753 133.467,348.838 132.917 C 348.922 132.367,349.063 131.279,349.150 130.500 C 349.237 129.721,349.395 128.589,349.500 127.985 L 349.691 126.888 352.054 126.600 C 353.353 126.441,355.242 126.208,356.250 126.080 C 357.258 125.952,358.608 125.802,359.250 125.746 C 359.892 125.690,361.129 125.537,362.000 125.406 C 362.871 125.276,363.883 125.168,364.250 125.167 C 364.617 125.166,365.629 125.059,366.500 124.929 C 367.371 124.799,368.646 124.650,369.333 124.598 C 370.021 124.545,371.521 124.394,372.667 124.263 C 378.085 123.639,385.640 122.904,388.250 122.746 C 389.075 122.696,390.491 122.582,391.396 122.494 C 393.764 122.262,397.237 122.270,397.681 122.508 C 398.117 122.741,399.392 122.631,399.756 122.328 C 399.956 122.162,400.002 121.820,399.965 120.767 L 399.917 119.418 399.250 119.098 C 398.294 118.638,394.688 118.556,390.333 118.894 C 388.454 119.040,386.279 119.200,385.500 119.251 C 384.721 119.301,383.033 119.448,381.750 119.578 C 380.467 119.708,378.704 119.860,377.833 119.915 C 376.962 119.971,376.137 120.047,376.000 120.084 C 375.863 120.121,374.850 120.229,373.750 120.324 C 372.650 120.419,370.813 120.606,369.667 120.740 C 368.521 120.874,366.833 121.067,365.917 121.168 C 365.000 121.269,363.613 121.422,362.833 121.508 C 362.054 121.594,360.592 121.774,359.583 121.909 C 358.575 122.043,357.337 122.192,356.833 122.238 C 355.934 122.322,353.736 122.594,352.750 122.744 C 352.475 122.786,351.786 122.863,351.218 122.914 L 350.186 123.007 350.269 122.379 C 350.363 121.667,350.649 119.800,351.259 115.917 C 351.489 114.450,351.792 112.500,351.932 111.583 C 352.073 110.667,352.258 109.557,352.344 109.117 C 352.847 106.542,351.452 104.949,349.625 106.013 M251.750 108.513 C 252.117 108.610,252.604 108.729,252.833 108.777 C 255.196 109.269,258.929 112.128,260.315 114.506 C 261.736 116.944,262.874 120.364,263.234 123.281 C 263.652 126.657,263.742 131.642,263.417 133.331 C 263.382 133.511,263.309 134.392,263.253 135.288 C 263.097 137.806,262.287 143.295,261.561 146.750 C 260.786 150.442,260.485 151.675,259.669 154.500 C 259.470 155.188,259.232 156.012,259.139 156.333 C 258.930 157.060,258.180 159.302,257.997 159.750 C 257.922 159.933,257.653 160.646,257.400 161.333 C 257.147 162.021,256.878 162.655,256.803 162.742 C 256.728 162.829,256.667 163.005,256.667 163.133 C 256.667 163.261,256.560 163.603,256.430 163.891 C 255.830 165.220,254.961 167.266,254.932 167.417 C 254.915 167.508,254.671 168.071,254.390 168.667 C 253.903 169.700,253.761 170.043,253.667 170.417 C 253.644 170.508,253.485 170.762,253.313 170.981 C 253.141 171.199,252.999 171.462,252.999 171.564 C 252.998 171.666,252.664 172.387,252.257 173.167 C 251.850 173.946,251.310 174.996,251.057 175.500 C 250.805 176.004,250.458 176.623,250.288 176.875 C 250.117 177.127,250.039 177.334,250.114 177.336 C 250.189 177.337,250.171 177.394,250.073 177.461 C 249.906 177.577,248.333 180.098,248.333 180.251 C 248.333 180.291,248.116 180.645,247.850 181.037 C 247.584 181.429,246.720 182.725,245.930 183.917 C 244.208 186.514,242.077 189.439,241.012 190.667 C 237.354 194.885,235.424 196.723,232.000 199.254 C 230.762 200.168,229.600 200.998,229.417 201.097 C 226.495 202.678,225.229 203.172,223.798 203.286 L 222.680 203.376 222.762 201.980 C 222.807 201.212,222.988 198.971,223.163 197.000 C 223.338 195.029,223.571 192.404,223.679 191.167 C 223.787 189.929,223.895 188.804,223.919 188.667 C 223.942 188.529,224.012 187.704,224.075 186.833 C 224.137 185.963,224.263 184.612,224.354 183.833 C 224.445 183.054,224.584 181.554,224.663 180.500 C 224.741 179.446,224.920 177.533,225.060 176.250 C 225.201 174.967,225.437 172.642,225.586 171.083 C 225.735 169.525,226.003 166.825,226.181 165.083 C 226.358 163.342,226.584 161.129,226.682 160.167 C 226.780 159.204,226.885 158.229,226.915 158.000 C 226.946 157.771,227.017 157.058,227.072 156.417 C 227.237 154.525,227.664 150.454,228.010 147.477 C 228.188 145.951,228.335 144.301,228.337 143.810 C 228.339 143.319,228.410 142.622,228.493 142.262 C 228.577 141.902,228.692 140.964,228.750 140.178 C 228.808 139.393,228.968 137.850,229.106 136.750 C 229.244 135.650,229.423 133.962,229.504 133.000 C 229.586 132.037,229.768 130.200,229.909 128.917 C 230.050 127.633,230.280 125.458,230.420 124.083 C 230.559 122.708,230.788 120.496,230.928 119.167 C 231.068 117.837,231.223 116.188,231.272 115.500 C 231.350 114.415,231.419 114.202,231.797 113.884 C 232.785 113.054,236.152 111.341,239.750 109.837 C 240.293 109.611,242.376 108.996,242.917 108.903 C 243.192 108.856,243.717 108.738,244.083 108.640 C 245.751 108.194,250.263 108.120,251.750 108.513 M112.881 121.117 C 112.504 121.190,111.000 122.596,111.000 122.876 C 111.000 122.961,110.856 123.214,110.680 123.437 C 110.302 123.919,108.667 127.730,108.666 128.136 C 108.665 128.290,108.554 128.628,108.420 128.886 C 108.158 129.388,106.498 135.917,106.103 138.000 C 105.807 139.556,104.833 145.448,104.407 148.250 C 104.366 148.525,104.223 149.425,104.091 150.250 C 103.959 151.075,103.691 152.837,103.497 154.167 C 103.303 155.496,103.039 157.258,102.911 158.083 C 102.783 158.908,102.524 160.746,102.335 162.167 C 102.146 163.587,101.876 165.575,101.734 166.583 C 101.593 167.592,101.445 168.717,101.404 169.083 C 101.284 170.163,100.839 173.612,100.577 175.500 C 100.443 176.463,100.292 177.662,100.241 178.167 C 100.191 178.671,100.079 179.608,99.992 180.250 C 99.831 181.447,99.791 181.780,99.515 184.186 C 99.129 187.549,98.971 188.910,98.673 191.417 C 98.498 192.883,98.266 194.946,98.156 196.000 C 98.045 197.054,97.937 198.029,97.914 198.167 C 97.891 198.304,97.822 198.979,97.761 199.667 C 97.699 200.354,97.545 201.967,97.418 203.250 C 97.290 204.533,97.097 206.596,96.988 207.833 C 96.880 209.071,96.771 210.196,96.747 210.333 C 96.723 210.471,96.654 211.408,96.593 212.417 C 96.533 213.425,96.449 214.662,96.407 215.167 C 96.072 219.195,96.005 220.304,96.003 221.885 C 95.998 225.099,96.499 226.078,98.148 226.078 C 99.634 226.078,100.236 225.305,100.786 222.688 C 101.131 221.045,100.874 220.097,100.003 219.807 C 99.782 219.733,100.196 212.341,100.582 209.500 C 100.613 209.271,100.684 208.483,100.740 207.750 C 100.909 205.536,101.730 197.550,102.256 193.000 C 102.388 191.854,102.576 190.129,102.673 189.167 C 102.770 188.204,102.879 187.304,102.915 187.167 C 102.952 187.029,103.029 186.317,103.088 185.583 C 103.146 184.850,103.297 183.537,103.422 182.667 C 103.548 181.796,103.695 180.633,103.748 180.083 C 103.868 178.861,104.350 175.094,105.338 167.667 C 105.823 164.029,106.561 158.788,107.099 155.167 C 107.284 153.923,107.520 153.079,107.913 152.250 C 108.434 151.154,108.946 150.062,110.396 146.958 C 110.728 146.247,111.000 145.633,111.000 145.594 C 111.000 145.554,111.080 145.311,111.178 145.053 C 111.276 144.794,111.364 144.546,111.372 144.500 C 111.380 144.454,111.562 144.087,111.777 143.684 C 111.991 143.280,112.167 142.827,112.167 142.675 C 112.167 142.524,112.241 142.326,112.331 142.236 C 112.580 141.987,114.498 136.472,114.732 135.333 C 114.760 135.196,114.822 134.971,114.870 134.833 C 116.740 129.467,117.037 123.169,115.493 121.640 C 114.833 120.987,114.204 120.861,112.881 121.117 M101.867 122.243 C 101.102 122.588,99.341 124.494,99.780 124.503 C 99.855 124.504,99.838 124.560,99.742 124.628 C 99.121 125.062,97.205 130.143,96.522 133.167 C 96.429 133.579,96.158 134.704,95.919 135.667 C 95.334 138.026,93.898 146.031,93.242 150.583 C 93.097 151.592,92.873 153.054,92.744 153.833 C 92.615 154.612,92.465 155.625,92.411 156.083 C 92.356 156.542,92.210 157.554,92.086 158.333 C 91.962 159.112,91.815 160.125,91.758 160.583 C 91.702 161.042,91.547 162.167,91.415 163.083 C 91.001 165.942,90.219 171.858,89.857 174.866 C 89.730 175.922,89.626 176.220,89.268 176.552 C 89.029 176.774,88.833 177.007,88.833 177.070 C 88.833 177.278,86.978 179.514,86.022 180.460 C 83.686 182.768,80.768 184.333,78.803 184.333 C 78.728 184.333,78.665 183.902,78.662 183.375 C 78.632 176.660,76.408 172.650,72.941 173.060 C 71.604 173.217,69.749 174.741,69.569 175.830 C 69.504 176.225,69.234 176.500,68.912 176.500 C 68.432 176.500,66.882 177.890,66.378 178.772 C 64.923 181.321,64.500 182.803,64.505 185.333 C 64.508 187.088,65.227 189.961,65.809 190.542 C 65.914 190.647,66.000 190.798,66.000 190.876 C 66.000 192.252,69.606 194.004,71.927 193.755 C 73.704 193.565,76.833 191.445,76.833 190.432 C 76.833 190.286,76.900 190.167,76.982 190.167 C 77.063 190.167,77.343 189.679,77.602 189.083 L 78.074 188.000 78.877 188.000 C 80.859 188.000,84.749 186.630,85.954 185.507 C 86.155 185.320,86.372 185.167,86.437 185.167 C 86.502 185.167,86.674 185.058,86.819 184.926 C 88.635 183.269,88.812 183.157,88.734 183.708 C 88.705 183.915,88.563 185.133,88.418 186.417 C 88.273 187.700,88.012 189.950,87.836 191.417 C 87.661 192.883,87.403 195.208,87.264 196.583 C 87.124 197.958,86.862 200.508,86.682 202.250 C 86.502 203.992,86.268 206.354,86.164 207.500 C 86.059 208.646,85.947 209.771,85.915 210.000 C 85.883 210.229,85.808 211.167,85.748 212.083 C 85.689 213.000,85.534 214.950,85.404 216.417 C 85.141 219.393,85.086 225.269,85.316 225.864 C 85.916 227.418,87.658 227.730,88.732 226.475 C 90.068 224.915,90.438 221.000,89.250 221.000 C 89.123 221.000,88.973 220.925,88.916 220.833 C 88.803 220.650,89.430 211.980,89.772 209.000 C 89.809 208.679,89.914 207.479,90.006 206.333 C 90.098 205.188,90.205 204.137,90.244 204.000 C 90.283 203.862,90.361 203.075,90.418 202.250 C 90.475 201.425,90.631 199.925,90.764 198.917 C 90.898 197.908,91.076 196.333,91.159 195.417 C 91.302 193.856,91.436 192.645,92.088 187.000 C 92.420 184.127,92.948 179.770,93.250 177.417 C 93.696 173.943,94.180 170.246,94.418 168.500 C 94.550 167.537,94.811 165.587,94.999 164.167 C 95.187 162.746,95.485 160.646,95.661 159.500 C 95.837 158.354,96.067 156.779,96.173 156.000 C 96.306 155.023,96.548 154.195,96.955 153.333 C 97.612 151.941,98.145 150.726,98.180 150.540 C 98.193 150.472,98.329 150.229,98.484 150.000 C 98.638 149.771,98.939 149.171,99.153 148.667 C 99.367 148.162,99.733 147.349,99.966 146.859 C 100.198 146.370,100.389 145.863,100.389 145.734 C 100.389 145.605,100.443 145.500,100.510 145.500 C 100.576 145.500,100.682 145.296,100.744 145.047 C 100.807 144.799,100.993 144.292,101.157 143.922 C 101.459 143.246,102.166 141.394,102.242 141.083 C 102.264 140.992,102.369 140.706,102.474 140.447 C 102.580 140.189,102.667 139.907,102.667 139.820 C 102.667 139.733,102.740 139.532,102.829 139.373 C 103.243 138.636,104.601 133.668,105.200 130.701 C 106.413 124.689,104.909 120.871,101.867 122.243 M44.333 123.441 C 41.285 123.824,36.990 124.851,34.000 125.913 C 33.313 126.157,32.509 126.429,32.214 126.518 C 31.920 126.606,31.634 126.751,31.580 126.840 C 31.525 126.928,31.374 127.000,31.245 127.000 C 30.831 127.000,26.444 129.084,23.667 130.599 C 22.225 131.386,16.993 134.809,16.083 135.561 C 15.808 135.788,14.983 136.448,14.250 137.028 C 12.890 138.104,8.009 142.877,7.035 144.083 C 6.740 144.450,6.404 144.856,6.290 144.985 C 5.772 145.574,3.362 149.090,3.152 149.563 C 3.066 149.758,2.838 150.179,2.644 150.500 C 2.451 150.821,2.280 151.166,2.265 151.267 C 2.250 151.367,2.125 151.630,1.988 151.850 C -0.619 156.021,-0.842 164.468,1.528 169.276 C 2.489 171.227,2.880 171.660,3.790 171.782 C 5.728 172.042,6.423 170.131,5.166 167.999 C 0.473 160.039,5.778 148.199,18.225 138.855 C 18.880 138.363,19.442 137.894,19.472 137.813 C 19.503 137.733,19.602 137.667,19.692 137.667 C 19.829 137.667,20.889 136.949,21.167 136.668 C 21.212 136.621,21.400 136.495,21.583 136.387 C 21.767 136.279,22.704 135.707,23.667 135.117 C 34.633 128.389,47.514 125.280,53.709 127.865 C 55.488 128.608,58.313 130.495,58.327 130.950 C 58.331 131.060,58.427 131.210,58.542 131.283 C 59.473 131.879,60.774 134.960,61.259 137.717 C 62.027 142.081,60.572 150.998,58.410 155.180 C 58.271 155.447,58.197 155.667,58.244 155.667 C 58.292 155.667,58.113 156.098,57.847 156.625 C 57.580 157.152,57.003 158.333,56.565 159.250 C 56.126 160.167,55.644 161.104,55.492 161.333 C 55.341 161.563,54.993 162.162,54.718 162.667 C 54.049 163.896,53.188 165.302,52.718 165.932 C 52.506 166.216,52.333 166.529,52.333 166.627 C 52.333 166.725,52.272 166.831,52.198 166.861 C 52.123 166.892,51.700 167.442,51.256 168.083 C 50.295 169.475,49.198 170.833,48.793 171.134 C 48.632 171.254,48.500 171.410,48.500 171.481 C 48.500 171.620,45.071 175.027,43.833 176.119 C 42.857 176.980,40.245 179.024,39.570 179.455 C 36.201 181.607,33.714 182.991,32.006 183.664 L 31.183 183.989 30.305 183.398 C 29.343 182.750,26.661 181.433,25.075 180.828 L 24.067 180.444 24.204 179.347 C 24.329 178.351,24.513 177.117,25.251 172.333 C 25.385 171.463,25.573 170.188,25.667 169.500 C 25.762 168.813,25.952 167.425,26.090 166.417 C 26.228 165.408,26.448 163.908,26.577 163.083 C 26.707 162.258,26.933 160.721,27.079 159.667 C 27.226 158.612,27.496 156.700,27.679 155.417 C 27.863 154.133,28.120 152.333,28.251 151.417 C 28.382 150.500,28.648 148.550,28.842 147.083 C 29.036 145.617,29.333 143.517,29.501 142.417 C 30.132 138.290,29.604 136.882,27.568 137.264 C 26.333 137.496,26.327 137.515,25.332 145.083 C 25.021 147.445,24.861 148.573,24.502 150.917 C 24.418 151.467,24.229 152.817,24.082 153.917 C 23.936 155.017,23.710 156.592,23.581 157.417 C 23.451 158.242,23.301 159.292,23.246 159.750 C 23.192 160.208,23.077 160.996,22.992 161.500 C 22.855 162.307,22.492 164.878,21.990 168.583 C 21.903 169.225,21.759 170.162,21.669 170.667 C 21.579 171.171,21.466 171.958,21.418 172.417 C 21.370 172.875,21.224 173.963,21.094 174.833 C 20.965 175.704,20.766 177.074,20.652 177.878 C 20.483 179.075,20.398 179.325,20.181 179.264 C 16.639 178.267,12.893 178.780,10.971 180.527 C 7.817 183.394,10.129 188.215,15.273 189.495 C 17.019 189.929,17.276 189.973,18.184 189.988 L 18.952 190.000 18.745 191.208 C 18.631 191.873,18.491 192.829,18.433 193.333 C 18.375 193.838,18.254 194.662,18.164 195.167 C 18.075 195.671,17.885 196.946,17.743 198.000 C 17.601 199.054,17.377 200.704,17.245 201.667 C 16.493 207.147,16.154 209.675,16.073 210.417 C 16.023 210.875,15.877 211.963,15.748 212.833 C 15.619 213.704,15.470 214.867,15.418 215.417 C 15.365 215.967,15.215 217.204,15.085 218.167 C 14.856 219.856,14.379 224.041,14.001 227.667 C 13.901 228.629,13.781 229.754,13.734 230.167 C 13.279 234.169,13.262 240.525,13.704 241.531 C 14.439 243.203,16.797 243.151,17.774 241.441 C 19.491 238.437,20.654 234.500,19.826 234.500 C 19.738 234.500,19.667 234.400,19.667 234.278 C 19.667 233.896,18.917 233.629,18.020 233.691 C 17.027 233.760,17.042 233.810,17.322 231.412 C 17.407 230.681,17.525 229.596,17.584 229.000 C 17.853 226.266,18.130 223.853,18.674 219.500 C 18.852 218.079,19.114 215.979,19.257 214.833 C 19.399 213.688,19.625 212.000,19.758 211.083 C 19.891 210.167,20.043 209.004,20.096 208.500 C 20.148 207.996,20.292 206.946,20.414 206.167 C 20.537 205.387,20.683 204.338,20.738 203.833 C 20.793 203.329,20.948 202.167,21.081 201.250 C 21.214 200.333,21.472 198.533,21.653 197.250 C 22.576 190.718,22.707 190.000,22.983 190.001 C 23.454 190.003,26.208 189.489,27.583 189.143 C 28.317 188.958,29.097 188.772,29.317 188.729 C 29.538 188.686,29.852 188.579,30.015 188.492 C 30.178 188.405,30.448 188.334,30.614 188.334 C 31.366 188.336,38.633 195.066,42.117 198.987 C 42.815 199.773,43.853 200.942,44.423 201.583 C 44.993 202.225,46.050 203.423,46.771 204.246 C 47.493 205.069,48.196 205.867,48.333 206.021 C 48.471 206.175,48.921 206.701,49.333 207.190 C 52.051 210.415,56.572 215.018,58.070 216.085 C 58.584 216.451,59.434 217.068,59.960 217.456 C 65.299 221.397,71.400 220.217,75.178 214.514 C 76.968 211.811,74.094 209.856,72.033 212.375 C 68.514 216.675,66.379 217.040,61.833 214.119 C 59.916 212.886,56.139 209.196,52.396 204.897 C 50.721 202.974,48.917 200.914,48.752 200.736 C 48.659 200.636,48.171 200.078,47.667 199.494 C 45.544 197.038,45.260 196.721,44.645 196.119 C 44.290 195.772,44.000 195.434,44.000 195.369 C 44.000 195.186,37.746 189.042,36.333 187.836 C 34.788 186.517,34.749 186.692,36.833 185.632 C 38.541 184.762,40.759 183.387,41.406 182.795 C 41.584 182.633,41.785 182.500,41.853 182.500 C 41.921 182.500,42.075 182.401,42.196 182.281 C 42.318 182.160,42.537 181.992,42.684 181.906 C 44.399 180.906,52.000 173.674,52.000 173.042 C 52.000 172.927,52.073 172.833,52.161 172.833 C 52.402 172.833,54.523 170.037,56.080 167.667 C 57.880 164.927,58.855 163.250,59.763 161.334 C 59.914 161.014,60.405 159.983,60.853 159.043 C 61.300 158.103,61.667 157.238,61.667 157.121 C 61.667 157.003,61.776 156.752,61.909 156.562 C 62.042 156.371,62.188 156.011,62.234 155.760 C 62.279 155.509,62.385 155.217,62.469 155.111 C 62.673 154.852,63.787 151.298,64.179 149.655 C 64.451 148.517,64.718 146.880,65.100 144.003 C 65.154 143.592,65.195 142.242,65.190 141.003 C 65.175 137.314,64.404 133.739,63.140 131.500 C 63.063 131.362,62.924 131.076,62.832 130.862 C 61.497 127.761,57.768 125.038,53.083 123.744 C 52.099 123.472,45.817 123.254,44.333 123.441 M112.419 129.375 C 112.052 131.220,111.021 135.065,110.664 135.917 C 110.587 136.100,110.449 136.475,110.357 136.750 C 110.217 137.171,110.205 137.119,110.285 136.417 C 110.337 135.958,110.434 135.471,110.501 135.333 C 110.568 135.196,110.714 134.671,110.827 134.167 C 110.939 133.662,111.291 132.387,111.609 131.333 C 111.927 130.279,112.225 129.285,112.272 129.125 C 112.418 128.618,112.531 128.810,112.419 129.375 M101.164 131.817 C 100.615 134.192,99.279 138.359,99.421 137.250 C 99.521 136.471,99.984 134.688,100.784 132.000 C 101.098 130.946,101.394 129.946,101.442 129.779 C 101.491 129.612,101.562 129.507,101.602 129.546 C 101.641 129.585,101.444 130.607,101.164 131.817 M360.627 141.422 C 360.009 141.544,359.409 141.706,359.293 141.780 C 359.178 141.853,358.855 141.994,358.575 142.092 C 352.636 144.179,350.152 153.129,353.860 159.083 C 354.145 159.542,354.508 160.142,354.666 160.417 C 355.525 161.911,359.179 166.879,360.611 168.500 C 361.410 169.405,362.667 171.441,363.143 172.604 C 363.341 173.087,363.316 173.189,362.796 174.021 C 362.488 174.513,362.142 175.104,362.028 175.333 C 361.913 175.563,361.601 176.125,361.333 176.583 C 360.582 177.870,358.353 182.300,357.895 183.417 C 357.670 183.967,357.417 184.567,357.333 184.750 C 354.146 191.751,356.172 197.350,361.010 194.914 C 362.135 194.348,364.432 192.065,365.196 190.755 C 365.501 190.232,365.890 189.566,366.062 189.277 C 366.234 188.987,366.389 188.675,366.408 188.583 C 366.426 188.492,366.574 188.117,366.736 187.750 C 368.551 183.651,368.910 179.161,367.822 174.167 L 367.622 173.250 368.394 172.083 C 368.819 171.442,369.166 170.829,369.166 170.722 C 369.167 170.615,369.230 170.503,369.308 170.472 C 369.386 170.442,369.668 170.086,369.933 169.682 C 370.199 169.278,370.529 168.785,370.667 168.587 C 371.339 167.619,372.227 166.339,372.712 165.641 C 374.263 163.407,375.236 162.014,378.223 157.750 C 380.021 155.183,381.738 152.726,382.038 152.289 C 382.338 151.852,382.899 151.074,383.285 150.560 C 384.219 149.317,384.250 148.427,383.390 147.567 C 382.332 146.510,381.116 146.859,380.018 148.537 C 379.641 149.112,378.878 150.221,378.321 151.000 C 377.765 151.779,377.051 152.792,376.735 153.250 C 376.419 153.708,375.917 154.430,375.621 154.853 C 375.326 155.276,373.752 157.526,372.125 159.853 C 370.499 162.180,369.096 164.170,369.008 164.276 C 368.854 164.463,367.759 166.095,367.417 166.647 C 367.325 166.796,367.203 166.954,367.145 167.000 C 367.088 167.046,366.742 167.557,366.377 168.136 L 365.713 169.189 365.340 168.553 C 364.887 167.778,364.210 166.851,363.000 165.349 C 361.676 163.705,361.162 163.036,360.460 162.040 C 360.116 161.553,359.686 160.995,359.503 160.798 C 359.320 160.602,359.127 160.304,359.074 160.137 C 359.021 159.970,358.908 159.833,358.822 159.833 C 358.737 159.833,358.667 159.745,358.667 159.638 C 358.667 159.531,358.563 159.325,358.436 159.180 C 356.071 156.482,355.154 152.079,356.401 149.415 C 356.959 148.224,358.689 146.167,359.133 146.167 C 359.228 146.167,359.331 146.104,359.361 146.028 C 359.659 145.286,362.047 144.814,364.181 145.075 C 365.468 145.233,366.058 144.967,366.437 144.060 C 367.330 141.922,364.521 140.647,360.627 141.422 M163.070 157.484 C 162.082 157.840,161.441 158.224,160.760 158.869 C 160.491 159.124,160.219 159.333,160.158 159.333 C 160.096 159.333,159.829 159.652,159.564 160.042 C 159.300 160.431,158.915 160.937,158.709 161.165 C 158.309 161.607,156.959 164.139,156.753 164.833 C 156.685 165.063,156.532 165.475,156.413 165.750 C 155.989 166.728,155.545 168.101,155.256 169.333 C 154.824 171.172,153.437 174.272,151.803 177.049 C 151.545 177.488,151.333 177.908,151.333 177.982 C 151.333 178.248,149.199 180.925,148.696 181.292 C 147.353 182.268,146.079 181.012,144.511 177.167 C 144.119 176.204,143.682 175.285,143.540 175.125 C 143.398 174.965,143.332 174.833,143.394 174.833 C 143.719 174.833,141.655 171.516,140.892 170.811 C 138.732 168.815,135.158 169.858,133.551 172.953 C 132.495 174.988,132.485 174.962,133.094 171.703 C 133.967 167.027,134.024 166.546,133.777 165.956 C 133.339 164.909,132.290 164.604,131.131 165.188 C 130.449 165.532,130.416 165.616,129.919 168.250 C 129.323 171.405,129.144 172.030,128.451 173.370 C 128.059 174.129,127.616 174.938,127.468 175.167 C 127.319 175.396,127.058 175.846,126.887 176.167 C 126.085 177.667,122.945 181.969,121.594 183.415 C 118.782 186.428,116.802 188.012,115.870 187.995 C 115.616 187.990,114.789 187.500,115.035 187.500 C 115.090 187.500,114.983 187.106,114.798 186.625 C 114.295 185.316,114.217 182.153,114.600 178.583 C 115.159 173.376,115.053 172.870,113.372 172.708 C 111.769 172.554,111.374 173.219,111.069 176.583 C 111.019 177.133,110.908 178.133,110.822 178.804 C 110.446 181.749,110.760 187.044,111.384 188.281 C 111.514 188.539,111.666 188.938,111.722 189.167 C 111.868 189.763,113.205 191.130,113.950 191.443 C 116.773 192.631,121.414 189.883,125.750 184.458 C 125.842 184.343,126.211 183.875,126.570 183.416 C 126.930 182.958,127.273 182.525,127.334 182.453 C 127.445 182.322,127.394 182.831,126.926 186.583 C 126.177 192.585,126.706 194.237,129.085 193.333 C 129.910 193.019,130.153 192.439,131.910 186.583 C 132.020 186.217,132.159 185.804,132.219 185.667 C 132.363 185.334,133.522 182.129,133.575 181.917 C 133.651 181.612,133.856 181.087,134.016 180.788 C 134.164 180.511,134.886 178.682,134.918 178.500 C 134.941 178.375,136.281 175.821,136.620 175.257 C 137.150 174.375,138.032 173.501,138.261 173.629 C 138.841 173.954,140.066 176.154,140.927 178.417 C 141.171 179.058,141.453 179.685,141.553 179.808 C 141.653 179.932,141.751 180.139,141.770 180.268 C 141.816 180.585,142.719 181.999,142.875 182.000 C 142.944 182.000,143.000 182.097,143.000 182.216 C 143.000 182.766,144.700 184.491,145.734 184.992 C 148.439 186.302,151.322 184.804,154.157 180.617 C 154.727 179.775,154.732 179.772,154.851 180.216 C 155.554 182.847,158.427 183.244,160.655 181.017 C 161.509 180.163,164.000 176.464,164.000 176.050 C 164.000 175.953,164.112 175.781,164.250 175.667 C 164.387 175.553,164.500 175.359,164.500 175.237 C 164.500 175.115,164.672 174.762,164.882 174.452 L 165.263 173.890 165.216 175.987 C 165.191 177.140,165.082 179.505,164.976 181.243 L 164.783 184.402 164.089 185.159 C 162.155 187.270,158.897 191.126,158.083 192.267 C 157.900 192.524,157.555 192.963,157.317 193.242 C 156.439 194.273,152.667 199.708,152.667 199.942 C 152.667 199.976,152.376 200.434,152.020 200.960 C 151.664 201.486,151.211 202.217,151.013 202.583 C 150.816 202.950,150.474 203.550,150.254 203.917 C 148.787 206.358,147.436 209.104,145.501 213.583 C 145.246 214.174,144.543 216.066,144.355 216.667 C 144.255 216.987,143.990 217.813,143.767 218.500 C 142.347 222.866,141.664 227.350,141.672 232.250 C 141.678 235.913,141.736 236.562,142.301 239.252 C 142.899 242.108,144.710 244.798,146.719 245.818 C 151.433 248.210,156.295 243.787,160.165 233.583 C 160.235 233.400,160.372 233.048,160.471 232.802 C 160.569 232.556,160.842 231.768,161.077 231.052 C 161.312 230.336,161.582 229.525,161.678 229.250 C 161.857 228.738,162.415 226.822,162.990 224.750 C 163.474 223.004,164.894 216.430,165.078 215.083 C 165.128 214.717,165.239 214.042,165.325 213.583 C 165.964 210.162,167.161 201.077,167.433 197.583 C 167.483 196.942,167.627 195.442,167.754 194.250 C 167.969 192.236,168.028 191.461,168.254 187.667 L 168.338 186.250 170.711 183.931 C 173.349 181.353,177.322 177.775,180.750 174.893 C 182.519 173.405,186.337 170.293,187.041 169.764 C 188.315 168.807,188.189 167.127,186.792 166.445 C 186.065 166.089,185.449 166.171,184.748 166.716 C 183.943 167.341,180.761 169.895,180.559 170.077 C 180.453 170.172,180.086 170.475,179.742 170.750 C 177.414 172.612,172.666 176.712,170.667 178.586 C 168.558 180.564,168.765 180.738,168.883 177.083 C 168.940 175.342,169.073 172.066,169.180 169.804 C 169.400 165.157,169.356 164.658,168.686 164.180 C 167.291 163.187,166.217 163.646,165.314 165.620 C 164.947 166.425,164.427 167.496,164.160 168.000 C 163.893 168.504,163.447 169.367,163.169 169.917 C 162.890 170.467,162.255 171.592,161.758 172.417 C 161.260 173.242,160.849 173.986,160.843 174.070 C 160.838 174.155,160.729 174.342,160.602 174.487 C 160.474 174.632,160.228 175.012,160.055 175.333 C 159.430 176.489,158.266 178.145,158.134 178.063 C 157.952 177.951,157.967 175.978,158.159 174.750 C 158.245 174.200,158.359 173.412,158.411 173.000 C 158.686 170.845,159.647 167.438,160.440 165.808 C 160.748 165.175,161.000 164.626,161.000 164.587 C 161.000 164.375,162.558 162.334,163.089 161.851 C 164.295 160.754,165.266 160.711,167.096 161.673 C 168.180 162.244,168.274 162.254,169.141 161.908 C 170.599 161.324,170.397 158.383,168.895 158.339 C 168.792 158.336,168.618 158.226,168.510 158.095 C 167.824 157.268,164.656 156.912,163.070 157.484 M276.126 158.667 C 276.503 159.704,277.063 162.635,276.973 163.099 C 276.878 163.592,275.595 162.316,275.071 161.208 C 274.550 160.107,274.547 158.545,275.064 157.755 C 275.443 157.178,275.651 157.357,276.126 158.667 M271.474 162.542 C 271.597 162.840,271.821 163.338,271.973 163.649 C 272.310 164.336,274.097 166.192,274.765 166.548 C 275.032 166.690,275.494 166.933,275.792 167.089 C 276.455 167.435,276.456 167.462,275.822 168.492 C 274.594 170.488,272.897 171.038,271.691 169.832 C 270.271 168.412,269.798 165.320,270.651 163.042 C 271.099 161.845,271.170 161.801,271.474 162.542 M113.494 164.208 C 112.017 164.953,111.046 167.444,111.942 168.188 C 112.848 168.940,115.878 168.195,116.401 167.092 C 117.457 164.867,115.681 163.105,113.494 164.208 M73.644 177.056 C 74.214 177.743,75.271 182.851,74.838 182.829 C 74.281 182.800,73.019 180.976,72.678 179.707 C 72.331 178.421,73.078 176.373,73.644 177.056 M364.650 180.981 C 364.412 183.073,363.874 185.127,363.244 186.346 C 363.117 186.591,363.060 186.838,363.118 186.896 C 363.175 186.953,363.135 187.000,363.028 187.000 C 362.921 187.000,362.833 187.079,362.833 187.176 C 362.833 187.662,359.897 191.333,359.508 191.333 C 359.225 191.333,359.690 189.250,360.382 187.417 C 360.521 187.050,360.691 186.600,360.760 186.417 C 360.830 186.233,360.874 186.027,360.860 185.958 C 360.845 185.890,360.908 185.833,361.000 185.833 C 361.092 185.833,361.167 185.720,361.167 185.581 C 361.167 185.442,361.237 185.199,361.322 185.039 C 361.408 184.880,362.174 183.330,363.026 181.595 C 364.764 178.052,364.992 177.966,364.650 180.981 M69.442 181.957 C 69.728 183.098,72.221 186.167,72.861 186.167 C 72.955 186.167,73.250 186.322,73.516 186.511 C 73.782 186.701,74.002 186.795,74.005 186.720 C 74.008 186.645,74.085 186.712,74.177 186.869 C 74.644 187.671,72.320 190.056,71.071 190.056 C 68.985 190.056,67.483 185.692,68.557 182.750 C 68.724 182.292,68.890 181.823,68.925 181.708 C 69.037 181.345,69.323 181.483,69.442 181.957 M18.937 182.837 L 19.958 183.028 19.826 183.639 C 19.753 183.975,19.641 184.756,19.577 185.375 C 19.513 185.994,19.409 186.500,19.345 186.500 C 19.280 186.500,18.783 186.423,18.239 186.330 C 13.716 185.552,11.788 183.389,14.917 182.601 C 15.405 182.479,17.758 182.617,18.937 182.837 M25.042 184.928 C 26.580 185.563,26.540 185.636,24.500 185.920 C 24.087 185.977,23.613 186.063,23.446 186.111 C 23.171 186.189,23.153 186.120,23.259 185.390 C 23.397 184.439,23.469 184.285,23.725 184.387 C 23.831 184.429,24.423 184.672,25.042 184.928 M164.195 192.535 C 164.096 193.387,163.972 194.571,163.920 195.167 C 163.729 197.350,163.312 201.129,163.075 202.833 C 162.941 203.796,162.789 205.033,162.738 205.583 C 162.687 206.133,162.542 207.183,162.415 207.917 C 162.289 208.650,162.138 209.662,162.080 210.167 C 162.021 210.671,161.910 211.346,161.833 211.667 C 161.756 211.987,161.653 212.550,161.605 212.917 C 161.310 215.176,159.539 223.380,158.798 225.917 C 158.144 228.158,156.737 232.254,156.336 233.083 C 156.247 233.267,155.854 234.132,155.462 235.005 C 152.833 240.870,149.995 243.657,148.130 242.208 C 145.153 239.897,144.412 231.138,146.493 222.835 C 146.780 221.690,147.037 220.640,147.065 220.501 C 147.094 220.363,147.164 220.137,147.221 220.000 C 147.278 219.862,147.585 219.000,147.902 218.083 C 148.918 215.146,148.967 215.024,150.114 212.500 C 151.506 209.440,154.086 204.677,155.473 202.606 C 155.710 202.252,155.982 201.834,156.077 201.676 C 156.454 201.051,156.988 200.241,157.133 200.074 C 157.217 199.978,157.502 199.565,157.768 199.158 C 158.033 198.750,158.531 198.042,158.874 197.583 C 159.218 197.125,159.499 196.656,159.499 196.542 C 159.500 196.427,159.566 196.333,159.646 196.333 C 159.727 196.333,160.121 195.902,160.521 195.375 C 160.922 194.848,161.345 194.316,161.461 194.194 C 161.577 194.071,161.877 193.700,162.128 193.369 C 162.378 193.038,162.761 192.576,162.978 192.342 C 163.196 192.108,163.562 191.671,163.793 191.370 C 164.364 190.628,164.404 190.745,164.195 192.535 M189.310 207.375 C 187.907 208.820,186.582 212.828,184.643 221.495 C 184.367 222.729,184.112 223.786,184.077 223.843 C 184.042 223.901,183.943 224.353,183.857 224.849 C 183.771 225.344,183.547 226.425,183.359 227.250 C 181.628 234.845,181.583 235.375,182.658 235.582 C 183.201 235.686,183.610 235.419,183.737 234.879 C 183.995 233.774,184.171 233.542,184.829 233.437 C 186.466 233.175,190.924 230.440,192.529 228.713 C 193.256 227.931,193.314 227.900,193.402 228.250 C 193.661 229.283,195.562 229.482,196.508 228.576 C 197.062 228.045,197.069 228.065,196.821 229.410 C 196.662 230.265,196.483 230.571,195.313 231.982 C 194.583 232.863,193.932 233.658,193.868 233.750 C 193.803 233.842,193.544 234.193,193.292 234.531 C 193.040 234.868,192.833 235.224,192.833 235.322 C 192.833 235.420,192.758 235.500,192.667 235.500 C 192.575 235.500,192.500 235.588,192.500 235.695 C 192.500 235.803,192.394 236.009,192.265 236.154 C 189.865 238.841,187.650 247.450,188.509 250.750 C 189.561 254.792,193.451 252.114,194.924 246.333 C 194.936 246.287,194.986 246.137,195.036 246.000 C 195.086 245.862,195.258 245.300,195.418 244.750 C 195.578 244.200,195.808 243.450,195.928 243.083 C 196.210 242.223,197.412 236.971,197.588 235.833 C 197.637 235.512,197.786 234.688,197.918 234.000 C 198.051 233.313,198.201 232.474,198.252 232.136 C 198.375 231.315,200.731 229.198,204.000 226.970 C 205.742 225.782,206.191 224.959,205.344 224.506 C 204.596 224.105,203.597 224.629,200.572 227.010 C 198.613 228.551,198.757 228.455,198.873 228.145 C 199.092 227.557,199.537 223.837,199.436 223.433 C 199.240 222.652,198.048 222.647,197.693 223.426 C 197.587 223.657,197.422 223.937,197.325 224.048 C 197.228 224.159,196.842 224.727,196.466 225.310 C 194.916 227.716,194.554 227.573,195.182 224.804 C 195.615 222.891,195.546 222.612,194.618 222.532 C 193.896 222.470,193.640 222.796,193.331 224.167 C 193.114 225.131,192.246 226.305,190.687 227.743 C 189.389 228.939,189.328 228.956,189.611 228.039 C 190.684 224.569,187.863 223.357,185.801 226.402 C 185.500 226.846,185.513 226.232,185.832 224.810 C 186.912 220.012,187.330 218.524,187.786 217.849 C 189.267 215.662,191.537 209.925,191.566 208.296 C 191.594 206.737,190.402 206.250,189.310 207.375 M187.880 227.292 C 187.389 228.599,185.692 231.073,185.450 230.833 C 185.404 230.787,185.505 230.487,185.675 230.167 C 185.844 229.846,186.038 229.471,186.104 229.333 C 186.365 228.796,187.780 227.000,187.943 227.000 C 187.968 227.000,187.940 227.131,187.880 227.292 M195.424 236.931 C 194.762 240.037,194.579 240.792,194.029 242.687 C 193.746 243.661,193.480 244.636,193.439 244.854 C 193.398 245.072,193.245 245.475,193.100 245.750 C 192.954 246.025,192.835 246.338,192.834 246.447 C 192.832 246.838,191.348 249.832,190.935 250.277 C 190.320 250.941,190.248 250.719,190.267 248.194 C 190.295 244.433,191.590 240.717,194.312 236.583 C 196.031 233.973,196.053 233.980,195.424 236.931 M144.833 256.107 C 142.962 256.285,140.392 256.991,138.583 257.824 C 137.205 258.458,134.667 260.673,134.667 261.241 C 134.667 261.310,134.522 261.569,134.344 261.818 C 134.167 262.067,133.969 262.491,133.905 262.760 C 133.840 263.030,133.726 263.329,133.650 263.426 C 133.371 263.784,133.128 266.116,133.225 267.500 C 133.518 271.681,135.765 274.566,139.746 275.872 C 140.726 276.194,141.391 276.355,144.417 277.001 C 147.540 277.668,148.110 277.801,149.053 278.078 C 154.933 279.808,152.930 285.466,146.620 284.949 C 143.652 284.706,141.457 283.128,140.731 280.715 C 140.602 280.286,140.403 279.875,140.290 279.803 C 139.907 279.560,133.267 279.640,132.922 279.892 C 132.359 280.304,132.797 283.384,133.721 285.511 C 136.185 291.185,146.392 293.669,154.250 290.509 C 154.433 290.435,154.808 290.284,155.083 290.172 C 161.602 287.531,162.524 276.217,156.475 273.099 C 156.168 272.941,155.692 272.692,155.417 272.545 C 154.034 271.806,152.797 271.399,150.250 270.843 C 141.842 269.008,140.349 268.112,141.423 265.542 C 143.185 261.326,151.040 262.430,152.062 267.037 L 152.258 267.917 156.129 267.961 L 160.000 268.006 160.000 266.878 C 160.000 265.679,159.585 263.356,159.323 263.092 C 159.237 263.005,159.167 262.798,159.167 262.633 C 159.167 262.468,159.104 262.333,159.028 262.333 C 158.951 262.333,158.888 262.240,158.888 262.125 C 158.887 262.010,158.565 261.449,158.172 260.877 C 155.869 257.530,150.407 255.577,144.833 256.107 M179.667 256.100 C 170.401 257.192,165.253 261.819,163.758 270.397 C 162.863 275.531,164.361 282.126,167.200 285.547 C 167.594 286.023,168.067 286.590,168.250 286.809 C 168.433 287.028,168.996 287.536,169.500 287.938 C 170.004 288.340,170.511 288.748,170.627 288.843 C 171.562 289.616,175.405 291.205,176.859 291.419 C 177.257 291.478,177.950 291.596,178.398 291.680 C 180.419 292.061,186.144 291.637,187.294 291.021 C 187.487 290.918,187.771 290.833,187.926 290.833 C 188.427 290.833,191.718 289.114,192.664 288.358 C 194.093 287.215,196.112 284.852,196.173 284.250 C 196.183 284.158,196.285 283.971,196.401 283.833 C 197.062 283.046,198.000 280.519,198.589 277.936 C 198.890 276.620,198.952 271.632,198.685 270.250 C 197.378 263.478,194.070 259.310,188.311 257.179 C 186.092 256.358,181.908 255.835,179.667 256.100 M202.611 257.278 C 202.550 257.339,202.500 264.878,202.500 274.032 L 202.500 290.675 202.928 290.837 C 203.392 291.014,224.810 291.069,225.458 290.895 C 225.955 290.762,226.062 283.957,225.570 283.768 C 225.425 283.712,221.975 283.667,217.903 283.667 L 210.500 283.667 210.500 280.333 L 210.500 277.000 217.375 276.997 C 221.156 276.996,224.346 276.934,224.462 276.860 C 224.624 276.757,224.664 276.049,224.629 273.904 L 224.583 271.083 217.542 271.040 L 210.500 270.996 210.500 267.583 L 210.500 264.170 218.125 264.127 L 225.750 264.083 225.795 260.625 L 225.840 257.167 214.281 257.167 C 207.924 257.167,202.672 257.217,202.611 257.278 M227.372 260.625 L 227.417 264.083 232.374 264.127 L 237.331 264.172 237.374 277.461 L 237.417 290.750 241.292 290.795 L 245.167 290.839 245.167 277.506 L 245.167 264.172 250.125 264.127 L 255.083 264.083 255.128 260.625 L 255.173 257.167 241.250 257.167 L 227.327 257.167 227.372 260.625 M184.083 263.592 C 185.482 263.973,186.055 264.241,187.064 264.986 C 187.878 265.587,189.333 267.144,189.333 267.414 C 189.333 267.479,189.488 267.750,189.678 268.016 C 189.868 268.282,189.979 268.500,189.926 268.500 C 189.872 268.500,189.947 268.781,190.092 269.125 C 190.236 269.469,190.422 270.087,190.505 270.500 C 190.588 270.912,190.696 271.438,190.745 271.667 C 191.543 275.388,190.107 280.244,187.543 282.501 C 184.456 285.218,178.251 285.382,175.327 282.824 C 175.101 282.627,174.804 282.380,174.667 282.275 C 171.912 280.167,170.712 274.022,172.192 269.598 C 173.812 264.757,178.905 262.184,184.083 263.592 M165.083 294.771 C 163.280 295.126,162.828 295.258,162.248 295.595 C 158.214 297.946,158.395 305.567,162.535 307.684 C 163.387 308.119,167.472 308.149,168.349 307.727 C 171.137 306.383,172.855 300.723,171.229 298.241 C 171.088 298.026,170.979 297.809,170.987 297.759 C 171.027 297.480,170.939 297.336,170.292 296.625 C 169.360 295.602,166.540 294.462,165.500 294.687 C 165.454 294.697,165.267 294.735,165.083 294.771 M180.250 295.156 C 176.271 295.838,175.851 300.161,179.543 302.427 C 180.390 302.947,181.290 303.565,181.542 303.800 C 182.835 305.010,181.069 306.529,178.993 305.992 C 178.585 305.886,177.969 305.762,177.625 305.716 L 177.000 305.632 177.000 306.375 C 177.000 307.792,177.395 308.000,180.079 308.000 C 182.937 308.000,183.675 307.627,184.466 305.784 C 184.750 305.124,184.722 303.321,184.423 302.892 C 184.288 302.701,184.217 302.505,184.264 302.459 C 184.408 302.314,183.271 301.277,182.405 300.762 C 180.304 299.514,179.858 299.156,179.741 298.625 C 179.516 297.603,181.040 296.935,182.760 297.302 C 183.930 297.551,184.158 297.283,184.165 295.647 C 184.167 295.032,182.324 294.800,180.250 295.156 M237.583 295.155 C 235.233 295.722,234.020 298.148,234.980 300.361 C 235.354 301.224,235.621 301.463,237.609 302.715 C 239.749 304.063,240.049 304.592,239.174 305.467 C 238.518 306.123,237.800 306.232,236.247 305.911 C 234.401 305.529,233.845 306.196,234.931 307.487 L 235.363 308.000 237.625 308.000 C 240.316 308.000,240.984 307.739,241.786 306.371 C 242.275 305.538,242.437 303.826,242.098 303.083 C 242.014 302.900,241.939 302.694,241.931 302.625 C 241.886 302.230,240.870 301.295,239.807 300.669 C 236.374 298.646,236.372 297.213,239.802 297.282 C 241.636 297.319,241.660 297.303,241.664 296.064 L 241.667 295.212 240.893 295.106 C 239.918 294.972,238.237 294.997,237.583 295.155 M145.707 295.360 C 145.489 295.578,145.390 307.186,145.601 307.736 C 145.749 308.120,148.085 308.120,148.232 307.736 C 148.288 307.591,148.333 306.560,148.334 305.445 L 148.334 303.417 149.625 303.417 C 154.217 303.417,156.063 297.137,151.972 295.429 C 151.219 295.115,146.010 295.057,145.707 295.360 M189.447 295.275 C 189.254 295.468,189.322 296.922,189.533 297.133 C 189.663 297.263,190.337 297.333,191.450 297.333 L 193.167 297.333 193.167 302.674 L 193.167 308.014 194.458 307.965 L 195.750 307.917 195.794 302.625 L 195.838 297.333 197.352 297.333 C 199.126 297.333,199.905 296.834,199.800 295.765 L 199.750 295.250 194.655 295.206 C 191.853 295.182,189.509 295.213,189.447 295.275 M205.540 295.305 C 205.375 295.410,205.339 296.797,205.373 301.678 L 205.417 307.917 206.667 307.917 L 207.917 307.917 207.963 305.281 C 208.008 302.701,208.016 302.646,208.362 302.697 C 208.738 302.753,208.771 302.799,209.346 304.061 C 209.875 305.222,210.743 306.473,211.589 307.292 C 212.499 308.172,214.554 308.371,215.074 307.630 C 215.472 307.061,215.420 306.167,214.989 306.167 C 214.078 306.167,212.821 304.865,211.791 302.853 C 211.419 302.127,211.419 302.121,211.749 301.936 C 214.423 300.440,214.503 296.916,211.893 295.659 C 210.850 295.158,206.182 294.897,205.540 295.305 M221.278 295.278 C 221.217 295.339,221.167 298.226,221.167 301.694 L 221.167 308.000 224.738 308.000 L 228.309 308.000 228.655 307.561 C 228.869 307.289,229.000 306.877,229.000 306.478 L 229.000 305.833 226.417 305.833 L 223.833 305.833 223.833 304.083 L 223.833 302.333 225.625 302.333 C 227.704 302.332,228.216 302.081,228.406 300.971 C 228.550 300.126,228.416 300.080,225.958 300.144 L 223.833 300.199 223.833 298.771 L 223.833 297.343 226.125 297.296 L 228.417 297.250 228.466 296.208 L 228.516 295.167 224.952 295.167 C 222.992 295.167,221.339 295.217,221.278 295.278 M166.622 297.093 C 169.193 297.635,169.804 303.201,167.531 305.373 C 165.091 307.706,162.091 305.426,162.154 301.286 C 162.204 298.024,163.824 296.503,166.622 297.093 M149.988 297.273 C 151.324 297.540,151.851 299.527,150.874 300.621 C 150.484 301.058,149.234 301.500,148.386 301.500 C 148.357 301.500,148.333 300.525,148.333 299.333 L 148.333 297.167 148.896 297.167 C 149.205 297.167,149.697 297.214,149.988 297.273 M209.583 297.329 C 211.816 297.844,211.298 300.373,208.910 300.619 L 208.000 300.713 208.000 298.940 L 208.000 297.167 208.458 297.171 C 208.710 297.173,209.217 297.244,209.583 297.329 " stroke="none" fill="#6c1c4c" fill-rule="evenodd"></path><path id="path2" d="M170.167 12.833 C 169.602 13.398,169.773 13.830,171.547 16.333 C 173.458 19.029,173.969 19.378,174.597 18.420 C 174.959 17.866,174.917 17.774,173.088 15.155 C 171.150 12.381,170.854 12.146,170.167 12.833 M204.125 23.288 C 203.276 24.226,203.860 24.674,207.157 25.616 C 210.427 26.550,211.464 26.369,210.774 24.985 C 210.373 24.180,204.641 22.717,204.125 23.288 M144.694 23.493 C 143.817 23.634,143.838 23.602,143.014 26.083 C 135.000 50.218,155.390 82.124,186.500 94.127 C 191.335 95.993,191.099 95.984,191.337 94.316 C 191.498 93.190,192.391 90.325,192.759 89.754 C 194.186 87.543,195.175 81.259,194.375 79.488 C 192.488 75.310,186.692 75.248,187.089 79.411 C 187.722 86.062,185.274 88.597,179.368 87.408 C 175.210 86.571,173.568 84.234,173.693 79.333 C 173.845 73.347,173.784 72.205,173.229 70.640 C 171.720 66.387,168.985 65.371,164.833 67.520 C 162.027 68.972,160.230 69.418,158.213 69.162 C 155.611 68.832,153.489 67.325,152.380 65.018 C 150.959 62.064,151.598 58.445,154.343 53.900 C 156.892 49.681,156.488 47.695,151.881 41.782 C 146.988 35.500,145.552 31.825,145.691 25.935 C 145.728 24.361,145.689 23.432,145.583 23.411 C 145.492 23.392,145.092 23.430,144.694 23.493 M183.697 30.439 C 180.974 31.821,180.416 37.614,182.539 42.458 C 183.244 44.068,183.354 44.167,183.965 43.739 C 185.591 42.601,189.243 42.257,191.998 42.983 C 198.833 44.785,204.278 51.741,203.166 57.250 C 202.836 58.890,202.835 58.888,203.583 59.044 C 210.651 60.512,218.020 56.935,217.630 52.225 C 217.485 50.478,216.026 49.740,211.110 48.926 C 207.296 48.295,206.014 46.809,204.681 41.476 C 203.645 37.328,203.573 37.257,201.080 37.905 C 195.154 39.445,193.292 38.735,188.259 33.010 C 185.957 30.392,184.929 29.813,183.697 30.439 M226.267 37.097 C 223.112 37.569,222.296 38.105,223.262 39.071 C 223.665 39.475,228.934 38.927,229.792 38.393 C 230.296 38.078,230.299 37.278,229.796 36.926 C 229.353 36.615,229.551 36.606,226.267 37.097 M166.024 48.246 C 163.067 50.107,162.652 50.585,163.367 51.300 C 164.060 51.994,169.361 48.985,169.471 47.835 C 169.607 46.425,168.754 46.527,166.024 48.246 M217.762 61.429 C 217.332 61.858,217.451 62.458,218.487 65.083 C 219.574 67.839,219.932 68.311,220.713 68.014 C 221.491 67.718,221.441 67.257,220.322 64.397 C 219.035 61.106,218.595 60.596,217.762 61.429 M190.147 65.217 C 187.939 67.351,187.724 67.651,188.011 68.188 C 188.561 69.216,189.074 68.968,191.625 66.443 C 193.735 64.354,193.953 63.978,193.362 63.442 C 192.738 62.878,192.338 63.098,190.147 65.217 M237.303 70.625 C 233.650 73.534,232.454 75.312,233.852 75.756 C 234.522 75.968,239.000 71.958,239.000 71.146 C 239.000 70.209,238.153 69.949,237.303 70.625 M240.583 79.401 C 238.844 79.953,237.311 80.942,231.448 85.296 C 223.391 91.279,221.624 91.869,216.083 90.428 C 209.872 88.812,207.952 88.922,207.328 90.930 C 207.051 91.823,206.829 98.371,207.070 98.553 C 207.589 98.946,215.262 98.341,218.500 97.651 C 228.605 95.501,237.320 89.111,241.322 80.920 C 242.204 79.114,242.108 78.916,240.583 79.401 " stroke="none" fill="#e59f41" fill-rule="evenodd"></path><path id="path3" d="M187.167 16.667 C 186.546 17.287,186.730 17.606,188.929 19.728 C 191.104 21.825,191.650 22.197,192.123 21.899 C 193.127 21.265,192.838 20.691,190.338 18.357 C 188.090 16.258,187.754 16.079,187.167 16.667 M166.870 26.926 C 166.407 27.251,166.408 27.302,166.933 30.470 C 167.485 33.796,167.739 34.264,168.744 33.806 C 169.375 33.518,169.392 33.179,168.917 30.333 C 168.286 26.558,168.022 26.119,166.870 26.926 M212.776 37.305 C 212.314 37.815,212.451 38.315,213.793 41.000 C 215.209 43.834,215.607 44.241,216.328 43.588 C 216.866 43.101,216.739 42.576,215.431 39.890 C 214.035 37.022,213.502 36.503,212.776 37.305 M223.609 49.638 C 222.770 50.566,223.341 51.044,226.333 51.914 C 229.330 52.786,229.881 52.836,230.251 52.272 C 230.883 51.307,230.469 51.028,226.888 50.007 C 224.203 49.241,223.990 49.217,223.609 49.638 M178.833 55.167 C 178.650 55.350,178.500 55.669,178.500 55.875 C 178.499 56.081,178.388 57.401,178.253 58.809 C 177.960 61.852,178.159 62.456,179.334 62.083 C 179.868 61.914,180.500 58.433,180.500 55.664 C 180.500 55.377,179.846 54.833,179.500 54.833 C 179.317 54.833,179.017 54.983,178.833 55.167 M206.667 77.433 C 203.580 79.396,203.348 79.681,204.167 80.500 C 204.657 80.991,204.723 80.967,207.395 79.313 C 210.142 77.614,210.537 77.213,210.152 76.522 C 209.697 75.709,209.155 75.851,206.667 77.433 " stroke="none" fill="#0eeff8" fill-rule="evenodd"></path><path id="path4" d="M169.167 2.606 C 156.677 3.531,146.203 10.345,144.384 18.728 C 143.954 20.711,144.055 20.826,146.125 20.712 C 148.685 20.571,149.042 20.941,148.562 23.234 C 147.343 29.060,148.770 33.299,154.490 40.852 C 158.909 46.687,159.554 49.651,157.324 53.873 C 155.621 57.097,154.997 58.451,154.729 59.500 C 153.235 65.353,158.142 68.357,163.833 65.075 C 169.168 61.998,174.089 64.260,176.022 70.678 C 176.370 71.833,176.396 72.243,176.406 76.750 L 176.417 81.583 176.917 82.583 C 177.717 84.184,178.641 84.636,181.422 84.784 C 184.006 84.923,184.864 83.925,184.573 81.121 C 184.151 77.047,185.063 75.128,187.876 74.179 C 192.787 72.520,197.234 76.162,197.222 81.833 C 197.216 84.685,196.871 86.246,195.252 90.750 C 191.582 100.955,192.117 108.778,196.641 111.070 C 197.485 111.498,200.007 112.038,200.598 111.918 C 200.773 111.883,201.117 111.811,201.362 111.760 C 203.634 111.284,204.260 108.783,204.203 100.417 C 204.109 86.485,205.403 85.076,215.917 87.667 C 221.732 89.100,222.178 88.944,231.000 82.410 C 238.724 76.690,240.227 76.050,243.876 76.929 C 245.100 77.223,246.151 71.043,245.948 64.750 C 245.042 36.679,214.887 7.267,183.083 3.433 C 177.360 2.742,171.788 2.411,169.167 2.606 M177.833 3.094 C 183.182 3.607,183.967 3.698,185.917 4.025 C 219.051 9.584,248.157 41.595,245.604 69.667 C 245.237 73.706,245.238 73.703,243.956 74.164 C 243.385 74.369,242.054 75.042,241.000 75.659 C 239.946 76.276,238.446 77.140,237.667 77.578 C 235.752 78.654,234.310 79.636,230.656 82.352 C 225.730 86.013,225.376 86.123,221.562 85.174 C 216.885 84.011,214.656 83.734,211.168 83.884 C 203.006 84.234,200.487 88.355,201.876 99.083 C 202.754 105.862,202.560 108.272,200.992 110.053 C 198.533 112.846,194.546 110.744,193.384 106.042 C 192.618 102.943,193.350 96.980,195.120 91.917 C 195.440 91.000,195.987 89.425,196.336 88.417 C 198.269 82.829,197.872 78.410,195.194 75.686 C 192.067 72.504,186.542 72.971,184.609 76.579 C 184.264 77.225,184.131 79.727,184.358 81.333 C 184.483 82.217,182.098 81.661,180.772 80.497 C 179.249 79.160,178.918 77.656,179.063 72.729 C 179.176 68.875,179.065 67.749,178.383 65.831 C 178.041 64.866,178.148 64.572,178.896 64.432 C 179.532 64.312,180.448 63.397,180.996 62.333 C 181.414 61.524,181.931 55.884,181.663 55.071 C 181.289 53.939,179.939 53.274,178.785 53.655 C 177.460 54.093,177.116 55.016,176.732 59.167 C 176.430 62.431,176.487 62.345,175.094 61.659 C 173.009 60.633,170.911 60.774,168.653 62.094 C 162.647 65.604,156.500 62.698,157.065 56.615 C 157.193 55.241,158.578 51.635,159.677 49.816 C 162.176 45.681,161.696 43.128,157.339 37.370 C 151.369 29.481,149.737 24.336,151.270 18.228 L 151.376 17.808 149.637 17.925 L 147.898 18.041 147.455 17.516 C 144.768 14.322,150.805 7.835,159.174 4.922 C 165.176 2.833,170.092 2.351,177.833 3.094 M169.917 11.402 C 168.836 11.882,168.346 12.927,168.337 14.770 C 168.333 15.652,171.209 20.211,172.214 20.914 C 173.176 21.588,174.400 21.144,175.367 19.769 C 176.523 18.125,176.446 17.602,174.683 15.083 C 171.967 11.202,171.382 10.751,169.917 11.402 M172.027 11.939 C 173.010 12.819,175.833 17.215,175.833 17.864 C 175.833 19.530,174.290 20.503,172.839 19.753 C 172.313 19.481,168.898 14.731,168.720 14.025 C 168.287 12.298,170.718 10.764,172.027 11.939 M170.106 12.679 C 169.355 13.269,169.504 13.727,171.273 16.272 C 173.314 19.208,174.006 19.679,174.741 18.630 C 175.182 17.999,175.047 17.652,173.489 15.417 C 171.329 12.317,170.953 12.013,170.106 12.679 M171.302 12.792 C 171.682 13.119,174.438 17.016,174.707 17.606 C 174.981 18.206,174.471 18.868,173.786 18.801 C 173.187 18.743,169.835 14.282,169.834 13.542 C 169.833 12.721,170.704 12.277,171.302 12.792 M186.917 15.234 C 185.926 15.671,185.560 16.378,185.393 18.179 L 185.285 19.337 187.268 21.356 C 190.820 24.973,191.630 25.181,193.235 22.885 C 194.578 20.962,194.359 20.338,191.332 17.475 C 188.654 14.942,188.154 14.688,186.917 15.234 M188.719 15.524 C 189.713 16.046,193.498 19.872,193.676 20.536 C 193.931 21.482,193.351 22.634,192.445 22.979 C 191.327 23.405,190.801 23.104,188.150 20.524 L 185.787 18.225 185.865 17.282 C 185.998 15.681,187.388 14.826,188.719 15.524 M203.640 21.921 C 202.883 22.332,202.503 23.159,202.389 24.644 L 202.285 25.985 202.851 26.544 C 203.464 27.151,208.230 28.667,209.523 28.667 C 210.917 28.667,212.558 26.288,212.167 24.835 C 211.734 23.227,205.289 21.025,203.640 21.921 M207.917 22.680 C 211.700 23.779,211.917 23.927,211.917 25.419 C 211.917 27.546,210.817 27.840,206.968 26.741 C 203.035 25.618,202.342 25.074,202.818 23.486 C 203.359 21.679,204.078 21.566,207.917 22.680 M204.000 23.167 C 203.412 23.755,203.635 24.648,204.452 24.972 C 207.206 26.065,210.307 26.656,210.745 26.172 C 211.692 25.126,210.994 24.513,207.802 23.590 C 204.859 22.738,204.472 22.695,204.000 23.167 M208.163 23.872 C 210.732 24.635,211.141 24.919,210.842 25.732 C 210.429 26.859,203.833 25.177,203.833 23.946 C 203.833 22.804,204.527 22.792,208.163 23.872 M144.455 23.288 C 143.692 23.368,143.535 23.590,142.846 25.561 C 134.234 50.194,155.706 83.143,188.061 94.948 C 191.287 96.125,191.135 96.164,191.687 94.000 C 191.933 93.037,192.411 91.500,192.751 90.583 C 194.623 85.525,194.833 84.648,194.833 81.900 C 194.833 78.514,193.280 76.462,190.530 76.215 C 187.684 75.959,186.375 77.433,186.902 80.301 C 187.902 85.742,183.991 88.728,178.367 86.820 C 174.608 85.545,173.691 83.405,174.002 76.629 C 174.313 69.866,172.278 66.248,168.167 66.258 L 166.750 66.261 164.652 67.359 C 159.907 69.839,155.574 69.301,153.262 65.945 C 151.213 62.970,151.630 58.956,154.500 54.024 C 157.096 49.564,156.790 47.917,152.252 41.924 C 146.980 34.960,145.909 32.315,145.925 26.292 L 145.933 23.167 145.508 23.195 C 145.275 23.210,144.801 23.252,144.455 23.288 M145.691 25.935 C 145.552 31.825,146.988 35.500,151.881 41.782 C 156.488 47.695,156.892 49.681,154.343 53.900 C 150.913 59.580,150.761 64.167,153.905 67.141 C 156.710 69.793,160.206 69.914,164.833 67.520 C 168.985 65.371,171.720 66.387,173.229 70.640 C 173.784 72.205,173.845 73.347,173.693 79.333 C 173.568 84.234,175.210 86.571,179.368 87.408 C 185.274 88.597,187.722 86.062,187.089 79.411 C 186.692 75.248,192.488 75.310,194.375 79.488 C 195.175 81.259,194.186 87.543,192.759 89.754 C 192.391 90.325,191.498 93.190,191.337 94.316 C 191.099 95.984,191.335 95.993,186.500 94.127 C 155.390 82.124,135.000 50.218,143.014 26.083 C 143.851 23.565,144.257 23.143,145.583 23.411 C 145.689 23.432,145.728 24.361,145.691 25.935 M187.379 25.086 C 186.878 25.339,186.280 25.822,185.975 26.221 C 185.243 27.177,185.020 27.333,184.391 27.333 C 181.983 27.333,179.279 30.217,178.686 33.417 C 176.194 46.879,191.070 62.167,206.660 62.167 C 213.219 62.167,219.040 58.978,220.174 54.765 C 220.834 52.313,221.289 51.893,222.232 52.865 C 222.713 53.360,223.143 53.530,225.916 54.324 L 229.055 55.223 229.647 54.903 C 231.693 53.798,232.336 50.941,230.771 49.915 C 229.905 49.348,224.658 47.965,223.792 48.076 C 223.206 48.152,223.000 48.123,222.999 47.964 C 222.994 46.845,222.072 45.542,220.848 44.928 C 220.064 44.533,219.928 44.485,218.708 44.170 L 218.000 43.987 218.000 43.102 C 218.000 42.097,215.739 37.080,214.977 36.396 C 213.391 34.970,211.414 35.805,211.080 38.044 C 210.840 39.653,210.459 39.215,209.843 36.626 C 208.787 32.178,208.051 31.616,204.574 32.598 C 199.607 34.002,198.284 33.413,192.497 27.227 C 190.206 24.777,188.995 24.271,187.379 25.086 M166.342 25.694 C 164.927 26.656,164.741 28.082,165.479 32.311 C 166.019 35.406,166.144 35.693,167.131 36.111 C 168.330 36.618,170.262 35.103,170.593 33.395 C 170.715 32.764,169.767 27.178,169.426 26.518 C 168.854 25.411,167.350 25.010,166.342 25.694 M168.597 25.981 C 169.617 26.603,170.750 32.710,170.084 33.998 C 169.386 35.348,167.228 35.361,166.511 34.020 C 166.141 33.329,165.329 27.803,165.503 27.157 C 165.860 25.831,167.395 25.248,168.597 25.981 M186.788 28.189 C 187.637 28.594,188.152 29.039,189.618 30.634 C 194.793 36.261,195.747 36.691,200.250 35.426 C 204.612 34.201,205.975 35.305,207.337 41.167 C 208.309 45.348,208.766 45.820,212.500 46.501 C 218.234 47.547,220.251 49.065,220.249 52.333 C 220.247 55.319,218.992 57.413,216.048 59.342 C 203.759 67.397,181.941 55.823,178.985 39.680 C 177.532 31.745,181.618 25.727,186.788 28.189 M183.085 30.683 C 180.631 32.945,180.307 37.810,182.287 42.667 C 183.088 44.633,183.011 44.593,184.583 43.831 C 192.824 39.836,204.833 49.266,202.681 58.043 C 202.395 59.212,202.345 59.161,204.036 59.436 C 210.128 60.426,216.842 57.611,217.733 53.692 C 218.416 50.688,217.154 49.724,211.250 48.739 C 207.402 48.097,206.276 46.806,204.922 41.482 C 203.815 37.133,203.686 37.012,200.874 37.717 C 195.112 39.161,193.155 38.382,188.285 32.704 C 185.887 29.908,184.508 29.372,183.085 30.683 M186.037 30.776 C 186.399 31.027,187.399 32.032,188.259 33.010 C 193.292 38.735,195.154 39.445,201.080 37.905 C 203.573 37.257,203.645 37.328,204.681 41.476 C 206.014 46.809,207.296 48.295,211.110 48.926 C 216.026 49.740,217.485 50.478,217.630 52.225 C 218.020 56.935,210.651 60.512,203.583 59.044 C 202.835 58.888,202.836 58.890,203.166 57.250 C 204.278 51.741,198.833 44.785,191.998 42.983 C 189.243 42.257,185.591 42.601,183.965 43.739 C 183.354 44.167,183.244 44.068,182.539 42.458 C 179.675 35.925,182.046 28.010,186.037 30.776 M227.917 35.514 C 221.963 36.348,221.719 36.483,221.536 39.036 C 221.345 41.703,221.988 41.974,226.809 41.264 C 229.850 40.816,229.985 40.748,231.007 39.156 C 231.911 37.747,231.531 36.148,230.160 35.600 C 229.434 35.310,229.388 35.308,227.917 35.514 M230.484 36.096 C 231.522 36.969,231.443 38.774,230.337 39.461 C 229.872 39.749,224.405 40.545,223.599 40.442 C 222.254 40.269,221.498 38.841,222.090 37.593 C 222.527 36.673,222.870 36.533,225.765 36.095 C 229.327 35.557,229.844 35.557,230.484 36.096 M214.582 36.362 C 215.107 36.775,217.833 42.163,217.833 42.789 C 217.833 44.456,216.246 45.449,214.730 44.730 C 214.161 44.459,211.642 39.746,211.386 38.473 C 211.036 36.722,213.212 35.284,214.582 36.362 M226.100 36.930 C 223.195 37.365,222.833 37.529,222.833 38.417 C 222.833 39.595,223.268 39.670,227.043 39.141 C 229.920 38.737,230.333 38.551,230.333 37.660 C 230.333 36.433,229.910 36.360,226.100 36.930 M229.796 36.926 C 230.299 37.278,230.296 38.078,229.792 38.393 C 228.934 38.927,223.665 39.475,223.262 39.071 C 222.296 38.105,223.112 37.569,226.267 37.097 C 229.551 36.606,229.353 36.615,229.796 36.926 M167.583 45.745 C 166.232 46.372,162.395 48.989,162.106 49.483 C 161.190 51.044,161.635 53.410,162.924 53.836 C 164.196 54.256,169.101 51.255,170.366 49.282 C 171.771 47.093,169.874 44.683,167.583 45.745 M169.717 46.030 C 170.850 46.624,170.928 48.426,169.862 49.391 C 167.626 51.414,164.080 52.975,162.995 52.414 C 160.990 51.377,161.683 49.704,164.968 47.646 C 168.287 45.566,168.618 45.454,169.717 46.030 M165.820 48.175 C 162.845 50.042,162.422 50.592,163.328 51.412 C 163.900 51.929,164.418 51.757,166.824 50.250 C 169.847 48.357,170.220 47.887,169.412 46.994 C 168.887 46.415,168.337 46.595,165.820 48.175 M169.231 47.049 C 170.076 47.666,169.594 48.291,167.000 49.948 C 164.095 51.802,163.167 51.974,163.167 50.659 C 163.167 50.088,163.368 49.918,166.024 48.246 C 168.286 46.821,168.706 46.665,169.231 47.049 M227.576 49.103 C 231.467 50.222,232.124 50.884,231.228 52.774 C 230.615 54.064,229.832 54.099,226.083 53.007 C 222.300 51.904,221.551 51.146,222.459 49.336 C 223.078 48.101,223.956 48.061,227.576 49.103 M180.505 54.086 C 181.558 54.630,181.705 56.562,181.056 61.311 C 180.739 63.630,177.622 63.978,177.029 61.760 C 176.841 61.057,177.407 55.497,177.730 54.872 C 178.226 53.914,179.483 53.557,180.505 54.086 M217.399 60.072 C 216.277 60.560,215.546 62.858,216.058 64.291 C 218.147 70.143,219.090 71.295,220.850 70.142 C 222.787 68.873,222.942 67.373,221.511 63.750 C 220.042 60.031,219.207 59.285,217.399 60.072 M219.661 60.625 C 220.202 61.121,222.126 65.694,222.290 66.872 C 222.547 68.720,220.443 69.939,219.038 68.756 C 218.507 68.310,216.333 63.126,216.333 62.308 C 216.333 60.489,218.383 59.453,219.661 60.625 M217.782 61.185 C 217.058 61.606,217.111 62.032,218.256 64.965 C 219.594 68.394,220.099 68.916,221.110 67.906 C 221.647 67.368,221.625 67.251,220.407 64.156 C 219.210 61.115,218.766 60.613,217.782 61.185 M219.034 61.458 C 219.504 62.001,221.366 67.014,221.258 67.445 C 221.110 68.035,220.378 68.266,219.871 67.883 C 219.422 67.545,217.501 62.888,217.500 62.137 C 217.500 61.275,218.495 60.835,219.034 61.458 M190.713 62.813 C 187.143 65.909,186.449 66.915,186.427 69.030 C 186.410 70.563,187.672 71.518,188.981 70.964 C 189.698 70.660,193.591 66.942,194.283 65.901 C 196.296 62.868,193.469 60.422,190.713 62.813 M193.578 62.237 C 195.844 63.184,194.860 65.329,190.375 69.219 C 188.442 70.894,185.832 68.894,187.144 66.743 C 187.554 66.070,191.384 62.472,191.963 62.216 C 192.566 61.949,192.899 61.953,193.578 62.237 M189.903 65.200 C 187.579 67.508,187.398 67.812,187.958 68.474 C 188.681 69.329,188.975 69.198,191.368 66.960 C 193.745 64.735,194.063 64.259,193.656 63.530 C 193.043 62.434,192.401 62.720,189.903 65.200 M193.362 63.442 C 193.953 63.978,193.735 64.354,191.625 66.443 C 189.074 68.968,188.561 69.216,188.011 68.188 C 187.724 67.651,187.939 67.351,190.147 65.217 C 192.338 63.098,192.738 62.878,193.362 63.442 M237.057 69.132 C 236.316 69.532,232.373 73.273,232.066 73.867 C 230.463 76.967,232.952 79.361,235.452 77.124 C 239.388 73.601,240.332 72.443,240.333 71.138 C 240.334 69.455,238.517 68.343,237.057 69.132 M239.318 69.596 C 240.784 70.830,240.348 71.962,237.333 74.744 C 234.916 76.974,234.432 77.207,233.278 76.696 C 231.330 75.834,231.572 74.524,234.140 72.026 C 237.301 68.950,238.103 68.573,239.318 69.596 M236.624 70.941 C 232.860 74.346,232.483 74.903,233.439 75.655 C 234.251 76.293,234.403 76.198,237.875 72.882 C 239.302 71.518,239.496 70.987,238.802 70.340 C 238.213 69.791,237.755 69.917,236.624 70.941 M238.630 70.426 C 239.407 70.971,239.155 71.461,237.125 73.355 C 234.271 76.017,233.822 76.247,233.319 75.307 C 233.001 74.712,233.286 74.268,235.025 72.659 C 237.870 70.027,237.970 69.964,238.630 70.426 M206.088 76.246 C 202.599 78.448,202.333 78.778,202.333 80.915 C 202.333 82.552,203.551 83.498,204.920 82.926 C 208.970 81.234,212.101 78.072,211.508 76.273 C 210.807 74.150,209.421 74.143,206.088 76.246 M210.061 75.063 C 212.403 76.042,211.797 77.861,208.417 79.991 C 205.127 82.063,204.739 82.190,203.653 81.549 C 201.729 80.412,202.410 78.883,205.797 76.735 C 208.956 74.731,209.115 74.668,210.061 75.063 M240.237 79.303 C 238.969 79.742,237.142 80.842,234.698 82.638 C 233.492 83.525,231.233 85.188,229.679 86.333 C 223.403 90.958,221.190 91.582,216.001 90.187 C 207.740 87.966,206.713 88.584,206.658 95.809 C 206.632 99.223,206.245 98.902,210.233 98.778 C 224.684 98.331,235.955 92.030,241.318 81.401 C 242.571 78.917,242.387 78.560,240.237 79.303 M241.916 79.332 C 242.217 79.820,239.978 83.566,237.841 86.149 C 232.149 93.026,224.630 96.999,214.960 98.239 C 212.643 98.537,207.327 98.748,207.070 98.553 C 206.829 98.371,207.051 91.823,207.328 90.930 C 207.952 88.922,209.872 88.812,216.083 90.428 C 221.624 91.869,223.391 91.279,231.448 85.296 C 238.455 80.093,241.362 78.436,241.916 79.332 " stroke="none" fill="#a44662" fill-rule="evenodd"></path></g></svg>